<svg xmlns="http://www.w3.org/2000/svg" xmlns:xlink="http://www.w3.org/1999/xlink" width="200" zoomAndPan="magnify" viewBox="0 0 150 149.999998" height="200" preserveAspectRatio="xMidYMid meet" version="1.0" class="curved-svg">
    <style>
   text {
        font-family: Arial Narrow, sans-serif;
   }
    .spaced-text {
              font-size: 14px;
              line-height: 1;
              letter-spacing: 1px;
            }
    .curved-text-container {
    transform: translateY(0);
    }
  </style>
  <defs>
    <g/>
    <clipPath id="d64fa12ac6">
      <path d="M 23.78125 24.554688 L 125.78125 24.554688 L 125.78125 126.554688 L 23.78125 126.554688 Z M 23.78125 24.554688 " clip-rule="nonzero"/>
    </clipPath>
    <clipPath id="62cd7348e2">
      <path d="M 12.695312 72.730469 L 20.195312 72.730469 L 20.195312 80.230469 L 12.695312 80.230469 Z M 12.695312 72.730469 " clip-rule="nonzero"/>
    </clipPath>
    <clipPath id="78d8699207">
      <path d="M 129.769531 72.730469 L 137.269531 72.730469 L 137.269531 80.230469 L 129.769531 80.230469 Z M 129.769531 72.730469 " clip-rule="nonzero"/>
    </clipPath>
    
      <path id="nameTextPath" d="M12.5,75 A30,30 0 0,1 137.5,75"/>

    </defs>




    <text font-size="12px" x="75" y="70" text-anchor="middle" dominant-baseline="central" id="idText">No. 00000</text>


  <text class="curved-text-container" style="transform: translateY(0px);">
    <textPath href="#nameTextPath" text-anchor="middle" startOffset="50%" class="textPath spaced-text curved-text" id="nameText" style="font-size: 14.3px;">JOHN M DOE</textPath>
  </text>

  <path fill="#000000" d="M 128.066406 114.761719 L 127.652344 115.292969 L 134.570312 120.554688 L 135.042969 119.964844 C 135.21875 119.789062 135.335938 119.550781 135.457031 119.375 L 128.476562 114.230469 C 128.300781 114.40625 128.183594 114.585938 128.066406 114.761719 Z M 130.191406 111.6875 L 137.40625 116.476562 C 137.703125 116.0625 137.9375 115.648438 138.234375 115.234375 L 130.902344 110.5625 C 130.726562 110.976562 130.429688 111.332031 130.191406 111.6875 Z M 132.558594 107.960938 L 140.066406 112.277344 L 140.777344 110.976562 L 133.148438 106.78125 Z M 124.871094 118.664062 L 131.375 124.398438 C 131.730469 124.042969 132.027344 123.628906 132.320312 123.277344 L 125.699219 117.660156 C 125.464844 118.011719 125.167969 118.308594 124.871094 118.664062 Z M 121.855469 121.855469 L 128.003906 128.003906 L 129.070312 126.941406 L 122.800781 120.910156 Z M 134.570312 104.117188 L 142.371094 107.960938 C 142.609375 107.488281 142.785156 107.074219 143.023438 106.601562 L 135.160156 102.9375 C 134.980469 103.292969 134.804688 103.707031 134.570312 104.117188 Z M 139.179688 91.761719 L 147.574219 93.949219 C 147.695312 93.476562 147.8125 93.003906 147.929688 92.472656 L 139.476562 90.460938 C 139.359375 90.933594 139.296875 91.347656 139.179688 91.761719 Z M 136.402344 100.097656 L 144.441406 103.410156 C 144.621094 102.9375 144.796875 102.464844 144.972656 101.992188 L 136.875 98.855469 C 136.695312 99.269531 136.519531 99.683594 136.402344 100.097656 Z M 140.246094 86.855469 L 140.125 87.503906 L 148.640625 89.160156 L 148.757812 88.449219 C 148.816406 88.214844 148.816406 87.976562 148.875 87.742188 L 140.304688 86.261719 C 140.304688 86.441406 140.304688 86.617188 140.246094 86.855469 Z M 140.777344 83.1875 L 149.410156 84.253906 L 149.585938 82.773438 L 140.953125 81.886719 Z M 141.191406 78.8125 L 149.882812 79.285156 C 149.941406 78.8125 149.941406 78.28125 149.941406 77.808594 L 141.25 77.511719 C 141.25 77.925781 141.25 78.339844 141.191406 78.8125 Z M 137.878906 95.960938 L 146.097656 98.679688 L 146.570312 97.261719 L 138.292969 94.660156 Z M 92.351562 139.003906 L 94.601562 147.398438 C 95.074219 147.28125 95.546875 147.160156 96.019531 146.984375 L 93.59375 138.648438 C 93.238281 138.765625 92.765625 138.882812 92.351562 139.003906 Z M 83.78125 140.71875 L 84.902344 149.351562 L 86.382812 149.113281 L 85.082031 140.539062 Z M 96.550781 137.703125 L 99.390625 145.921875 L 100.808594 145.449219 L 97.792969 137.289062 Z M 80.054688 141.070312 L 79.40625 141.132812 L 79.996094 149.824219 L 80.765625 149.761719 L 81.535156 149.703125 L 80.824219 141.070312 Z M 75.03125 141.308594 L 75.03125 150 L 76.507812 150 L 76.332031 141.308594 Z M 88.097656 140.007812 L 89.8125 148.523438 C 90.285156 148.402344 90.816406 148.285156 91.289062 148.226562 L 89.398438 139.769531 C 88.984375 139.832031 88.511719 139.890625 88.097656 140.007812 Z M 115.765625 127.296875 L 121.085938 134.15625 C 121.5 133.859375 121.855469 133.503906 122.269531 133.207031 L 116.773438 126.46875 C 116.417969 126.765625 116.121094 127 115.765625 127.296875 Z M 119.609375 124.042969 L 119.136719 124.457031 L 124.929688 130.960938 L 125.464844 130.488281 L 125.996094 129.957031 L 120.082031 123.570312 Z M 112.21875 129.898438 L 117.125 137.050781 L 118.367188 136.222656 L 113.34375 129.128906 Z M 108.496094 132.203125 L 112.871094 139.710938 C 113.285156 139.476562 113.757812 139.238281 114.171875 138.945312 L 109.617188 131.554688 C 109.261719 131.789062 108.847656 131.96875 108.496094 132.203125 Z M 105.242188 134.035156 L 104.652344 134.332031 L 108.554688 142.078125 L 109.203125 141.722656 L 109.855469 141.367188 L 105.832031 133.679688 Z M 100.628906 136.164062 L 104 144.148438 C 104.472656 143.96875 104.886719 143.734375 105.359375 143.554688 L 101.8125 135.632812 C 101.457031 135.808594 101.042969 135.988281 100.628906 136.164062 Z M 46.589844 144.382812 C 47.0625 144.558594 47.535156 144.738281 48.007812 144.914062 L 51.144531 136.816406 C 50.730469 136.636719 50.316406 136.519531 49.902344 136.34375 Z M 51.261719 146.15625 L 52.679688 146.628906 L 55.28125 138.351562 L 54.039062 137.9375 Z M 45.882812 134.570312 L 42.039062 142.371094 C 42.511719 142.609375 42.925781 142.785156 43.398438 143.023438 L 47.0625 135.160156 C 46.707031 134.980469 46.292969 134.804688 45.882812 134.570312 Z M 56.050781 147.574219 C 56.523438 147.695312 56.996094 147.8125 57.527344 147.929688 L 59.539062 139.476562 C 59.125 139.359375 58.652344 139.296875 58.238281 139.179688 Z M 62.496094 140.125 L 60.839844 148.640625 L 61.550781 148.757812 C 61.785156 148.816406 62.023438 148.816406 62.257812 148.875 L 63.738281 140.304688 C 63.5 140.246094 63.324219 140.246094 63.085938 140.183594 Z M 28.144531 121.855469 L 21.996094 128.003906 L 23.058594 129.070312 L 29.089844 122.800781 Z M 31.335938 124.871094 L 25.601562 131.375 C 25.957031 131.730469 26.371094 132.027344 26.722656 132.320312 L 32.339844 125.699219 C 31.988281 125.464844 31.691406 125.167969 31.335938 124.871094 Z M 42.039062 132.5 L 37.722656 140.066406 L 39.023438 140.777344 L 43.21875 133.148438 Z M 38.3125 130.191406 L 33.523438 137.40625 C 33.9375 137.703125 34.351562 137.9375 34.765625 138.234375 L 39.4375 130.902344 C 39.023438 130.726562 38.667969 130.429688 38.3125 130.191406 Z M 35.238281 128.066406 L 34.707031 127.652344 L 29.445312 134.570312 L 30.035156 135.042969 C 30.210938 135.21875 30.449219 135.335938 30.625 135.457031 L 35.769531 128.476562 C 35.59375 128.300781 35.414062 128.183594 35.238281 128.066406 Z M 65.746094 149.410156 L 67.226562 149.585938 L 68.113281 140.953125 L 66.8125 140.777344 Z M 70.714844 149.824219 C 71.1875 149.882812 71.71875 149.882812 72.191406 149.882812 L 72.488281 141.191406 C 72.074219 141.191406 71.601562 141.191406 71.1875 141.132812 Z M 20.101562 112.21875 L 12.949219 117.125 L 13.777344 118.367188 L 20.871094 113.34375 Z M 22.703125 115.765625 L 15.84375 121.085938 C 16.140625 121.5 16.496094 121.855469 16.792969 122.269531 L 23.53125 116.773438 C 23.234375 116.417969 23 116.121094 22.703125 115.765625 Z M 25.957031 119.609375 L 25.542969 119.136719 L 19.039062 124.929688 L 19.511719 125.464844 L 20.042969 125.996094 L 26.429688 120.082031 Z M 10.996094 92.351562 L 2.601562 94.601562 C 2.71875 95.074219 2.839844 95.546875 3.015625 96.019531 L 11.351562 93.59375 C 11.234375 93.179688 11.117188 92.765625 10.996094 92.351562 Z M 17.796875 108.496094 L 10.289062 112.871094 C 10.523438 113.285156 10.761719 113.757812 11.054688 114.171875 L 18.445312 109.617188 C 18.210938 109.261719 18.03125 108.847656 17.796875 108.496094 Z M 15.964844 105.242188 L 15.667969 104.652344 L 7.921875 108.496094 L 8.277344 109.144531 L 8.632812 109.796875 L 16.320312 105.773438 Z M 13.835938 100.628906 L 5.851562 104 C 6.03125 104.472656 6.265625 104.886719 6.445312 105.359375 L 14.367188 101.8125 C 14.191406 101.457031 14.011719 101.042969 13.835938 100.628906 Z M 8.691406 75.03125 L 0 75.03125 L 0 76.507812 L 8.691406 76.332031 Z M 9.992188 88.097656 L 1.476562 89.8125 C 1.597656 90.285156 1.714844 90.816406 1.773438 91.289062 L 10.230469 89.398438 C 10.167969 88.925781 10.109375 88.511719 9.992188 88.097656 Z M 8.929688 80.054688 L 8.867188 79.40625 L 0.175781 79.996094 L 0.238281 80.765625 L 0.296875 81.535156 L 8.929688 80.824219 Z M 12.296875 96.550781 L 4.078125 99.390625 L 4.550781 100.808594 L 12.710938 97.792969 Z M 9.28125 83.78125 L 0.648438 84.902344 L 0.886719 86.382812 L 9.460938 85.082031 Z M 10.878906 58.238281 L 2.484375 56.050781 C 2.363281 56.523438 2.246094 56.996094 2.128906 57.527344 L 10.582031 59.539062 C 10.640625 59.066406 10.761719 58.652344 10.878906 58.238281 Z M 9.753906 63.144531 L 9.875 62.496094 L 1.359375 60.839844 L 1.242188 61.550781 C 1.183594 61.785156 1.183594 62.023438 1.125 62.257812 L 9.695312 63.738281 C 9.695312 63.558594 9.695312 63.382812 9.753906 63.144531 Z M 15.429688 45.882812 L 7.628906 42.039062 C 7.390625 42.511719 7.214844 42.925781 6.976562 43.398438 L 14.839844 47.0625 C 15.019531 46.707031 15.195312 46.292969 15.429688 45.882812 Z M 12.121094 54.039062 L 3.902344 51.320312 L 3.429688 52.738281 L 11.707031 55.339844 Z M 13.65625 49.902344 L 5.617188 46.589844 C 5.441406 47.0625 5.261719 47.535156 5.085938 48.007812 L 13.183594 51.144531 C 13.304688 50.730469 13.480469 50.316406 13.65625 49.902344 Z M 17.5 42.039062 L 9.992188 37.722656 L 9.28125 39.023438 L 16.910156 43.21875 Z M 19.808594 38.3125 L 12.59375 33.523438 C 12.296875 33.9375 12.0625 34.351562 11.765625 34.765625 L 19.097656 39.4375 C 19.273438 39.023438 19.570312 38.667969 19.808594 38.3125 Z M 25.128906 31.335938 L 18.625 25.601562 C 18.269531 25.957031 17.972656 26.371094 17.679688 26.722656 L 24.300781 32.339844 C 24.535156 31.988281 24.832031 31.632812 25.128906 31.335938 Z M 21.933594 35.238281 L 22.347656 34.707031 L 15.429688 29.445312 L 14.957031 30.035156 C 14.78125 30.210938 14.664062 30.449219 14.542969 30.625 L 21.519531 35.769531 C 21.699219 35.59375 21.816406 35.414062 21.933594 35.238281 Z M 28.144531 28.144531 L 21.996094 21.996094 L 20.929688 23.058594 L 27.199219 29.089844 Z M 8.808594 71.1875 L 0.117188 70.714844 C 0.0585938 71.1875 0.0585938 71.71875 0.0585938 72.191406 L 8.75 72.488281 C 8.75 72.074219 8.808594 71.660156 8.808594 71.1875 Z M 9.222656 66.8125 L 0.589844 65.746094 L 0.414062 67.226562 L 9.046875 68.113281 Z M 34.234375 22.703125 L 28.910156 15.84375 C 28.5 16.140625 28.144531 16.496094 27.730469 16.792969 L 33.226562 23.53125 C 33.582031 23.234375 33.878906 22.941406 34.234375 22.703125 Z M 44.757812 15.964844 L 45.347656 15.667969 L 41.445312 7.921875 L 40.796875 8.277344 L 40.144531 8.632812 L 44.167969 16.320312 Z M 37.78125 20.101562 L 32.933594 12.949219 L 31.691406 13.777344 L 36.714844 20.871094 Z M 57.648438 10.996094 L 55.398438 2.601562 C 54.925781 2.71875 54.453125 2.839844 53.980469 3.015625 L 56.40625 11.351562 C 56.820312 11.234375 57.234375 11.117188 57.648438 10.996094 Z M 49.371094 13.835938 L 46 5.851562 C 45.527344 6.03125 45.113281 6.265625 44.640625 6.445312 L 48.1875 14.367188 C 48.542969 14.191406 48.957031 14.011719 49.371094 13.835938 Z M 30.390625 25.957031 L 30.863281 25.542969 L 25.070312 19.039062 L 24.535156 19.511719 L 24.003906 20.042969 L 29.917969 26.429688 Z M 53.449219 12.296875 L 50.609375 4.078125 L 49.191406 4.550781 L 52.207031 12.710938 Z M 41.503906 17.796875 L 37.128906 10.289062 C 36.714844 10.523438 36.242188 10.761719 35.828125 11.054688 L 40.382812 18.445312 C 40.738281 18.210938 41.152344 17.972656 41.503906 17.796875 Z M 74.96875 0 L 73.492188 0 L 73.667969 8.691406 L 74.96875 8.691406 Z M 65.097656 0.648438 L 63.617188 0.886719 L 64.917969 9.460938 L 66.21875 9.28125 Z M 60.1875 1.476562 C 59.714844 1.597656 59.183594 1.714844 58.710938 1.773438 L 60.601562 10.230469 C 61.015625 10.109375 61.488281 10.050781 61.902344 9.933594 Z M 69.292969 0.238281 L 68.527344 0.296875 L 69.234375 8.929688 L 69.886719 8.867188 L 70.535156 8.808594 L 69.945312 0.117188 Z M 114.761719 21.933594 L 115.292969 22.347656 L 120.554688 15.429688 L 119.964844 14.957031 C 119.789062 14.78125 119.550781 14.664062 119.375 14.542969 L 114.230469 21.519531 C 114.40625 21.699219 114.585938 21.816406 114.761719 21.933594 Z M 111.6875 19.808594 L 116.476562 12.59375 C 116.0625 12.296875 115.648438 12.0625 115.234375 11.765625 L 110.5625 19.097656 C 110.976562 19.273438 111.332031 19.570312 111.6875 19.808594 Z M 118.664062 25.128906 L 124.398438 18.625 C 124.042969 18.269531 123.628906 17.972656 123.277344 17.679688 L 117.660156 24.300781 C 118.011719 24.535156 118.367188 24.832031 118.664062 25.128906 Z M 92.53125 2.070312 L 90.519531 10.523438 C 90.933594 10.640625 91.40625 10.703125 91.820312 10.820312 L 94.007812 2.425781 C 93.476562 2.304688 93.003906 2.1875 92.53125 2.070312 Z M 107.960938 17.441406 L 112.277344 9.933594 L 110.976562 9.222656 L 106.78125 16.851562 Z M 121.855469 28.144531 L 128.003906 21.996094 L 126.941406 20.929688 L 120.910156 27.199219 Z M 88.390625 1.242188 C 88.15625 1.183594 87.917969 1.183594 87.683594 1.125 L 86.203125 9.695312 C 86.441406 9.753906 86.617188 9.753906 86.855469 9.816406 L 87.503906 9.933594 L 89.160156 1.417969 Z M 82.773438 0.414062 L 81.886719 9.046875 L 83.1875 9.222656 L 84.253906 0.589844 Z M 77.453125 8.75 C 77.867188 8.75 78.339844 8.75 78.753906 8.808594 L 79.226562 0.117188 C 78.753906 0.0585938 78.222656 0.0585938 77.75 0.0585938 Z M 104.117188 15.429688 L 107.960938 7.628906 C 107.488281 7.390625 107.074219 7.214844 106.601562 6.976562 L 102.9375 14.839844 C 103.292969 15.019531 103.707031 15.195312 104.117188 15.429688 Z M 98.738281 3.84375 L 97.320312 3.371094 L 94.71875 11.648438 L 95.960938 12.0625 Z M 103.410156 5.558594 C 102.9375 5.378906 102.464844 5.203125 101.992188 5.027344 L 98.855469 13.125 C 99.269531 13.304688 99.683594 13.421875 100.097656 13.597656 Z M 140.007812 61.902344 L 148.523438 60.1875 C 148.402344 59.714844 148.285156 59.183594 148.226562 58.710938 L 139.769531 60.601562 C 139.832031 61.015625 139.949219 61.488281 140.007812 61.902344 Z M 139.003906 57.648438 L 147.398438 55.398438 C 147.28125 54.925781 147.160156 54.453125 146.984375 53.980469 L 138.648438 56.40625 C 138.765625 56.761719 138.882812 57.234375 139.003906 57.648438 Z M 137.703125 53.449219 L 145.921875 50.609375 L 145.449219 49.191406 L 137.289062 52.207031 Z M 140.71875 66.21875 L 149.351562 65.097656 L 149.113281 63.617188 L 140.539062 64.917969 Z M 141.308594 74.96875 L 150 74.96875 L 150 73.492188 L 141.308594 73.667969 Z M 141.132812 69.945312 L 141.191406 70.59375 L 149.882812 70.003906 L 149.824219 69.234375 L 149.761719 68.464844 L 141.132812 69.175781 Z M 136.164062 49.371094 L 144.148438 46 C 143.96875 45.527344 143.734375 45.113281 143.554688 44.640625 L 135.632812 48.1875 C 135.808594 48.542969 135.988281 48.957031 136.164062 49.371094 Z M 124.042969 30.390625 L 124.457031 30.863281 L 130.960938 25.070312 L 130.488281 24.535156 L 129.957031 24.003906 L 123.570312 29.917969 Z M 134.035156 44.757812 L 134.332031 45.347656 L 142.078125 41.445312 L 141.722656 40.796875 L 141.367188 40.144531 L 133.679688 44.167969 Z M 127.296875 34.234375 L 134.15625 28.910156 C 133.859375 28.5 133.503906 28.144531 133.207031 27.730469 L 126.46875 33.226562 C 126.765625 33.582031 127.058594 33.878906 127.296875 34.234375 Z M 129.898438 37.78125 L 137.050781 32.875 L 136.222656 31.632812 L 129.128906 36.65625 Z M 132.203125 41.503906 L 139.710938 37.128906 C 139.476562 36.714844 139.238281 36.242188 138.945312 35.828125 L 131.554688 40.382812 C 131.789062 40.738281 132.027344 41.152344 132.203125 41.503906 Z M 132.203125 41.503906 " fill-opacity="1" fill-rule="nonzero"/>
  <g clip-path="url(#d64fa12ac6)">
    <path fill="#000000" d="M 124.203125 78.515625 C 123.398438 78.460938 122.789062 77.765625 122.816406 76.988281 C 122.839844 76.210938 123.492188 75.554688 124.308594 75.554688 C 125.121094 75.554688 125.78125 76.230469 125.746094 77.089844 C 125.714844 77.945312 125.011719 78.570312 124.203125 78.515625 Z M 123.738281 82.546875 C 122.945312 82.417969 122.40625 81.675781 122.503906 80.90625 C 122.601562 80.136719 123.3125 79.550781 124.113281 79.625 C 124.917969 79.703125 125.507812 80.433594 125.398438 81.277344 C 125.289062 82.121094 124.53125 82.675781 123.738281 82.546875 Z M 122.914062 86.507812 C 122.136719 86.308594 121.667969 85.523438 121.832031 84.765625 C 122 84.007812 122.757812 83.492188 123.546875 83.640625 C 124.335938 83.789062 124.855469 84.566406 124.671875 85.394531 C 124.488281 86.222656 123.691406 86.707031 122.914062 86.507812 Z M 121.746094 90.378906 C 120.988281 90.113281 120.585938 89.289062 120.820312 88.550781 C 121.054688 87.808594 121.851562 87.363281 122.625 87.578125 C 123.398438 87.796875 123.847656 88.613281 123.59375 89.421875 C 123.339844 90.230469 122.503906 90.644531 121.746094 90.378906 Z M 120.253906 94.140625 C 119.519531 93.816406 119.191406 92.957031 119.484375 92.238281 C 119.78125 91.519531 120.617188 91.140625 121.367188 91.421875 C 122.121094 91.703125 122.5 92.558594 122.179688 93.339844 C 121.859375 94.125 120.992188 94.46875 120.253906 94.140625 Z M 118.460938 97.777344 C 117.753906 97.394531 117.492188 96.511719 117.84375 95.816406 C 118.199219 95.117188 119.066406 94.808594 119.792969 95.152344 C 120.519531 95.496094 120.828125 96.378906 120.445312 97.132812 C 120.0625 97.890625 119.167969 98.164062 118.460938 97.777344 Z M 116.378906 101.269531 C 115.703125 100.828125 115.511719 99.925781 115.917969 99.257812 C 116.328125 98.589844 117.21875 98.351562 117.917969 98.75 C 118.617188 99.152344 118.855469 100.058594 118.414062 100.78125 C 117.972656 101.503906 117.058594 101.710938 116.378906 101.269531 Z M 114.03125 104.597656 C 113.390625 104.105469 113.265625 103.1875 113.726562 102.550781 C 114.1875 101.914062 115.09375 101.746094 115.761719 102.199219 C 116.429688 102.652344 116.597656 103.578125 116.101562 104.265625 C 115.605469 104.953125 114.675781 105.085938 114.03125 104.597656 Z M 111.4375 107.742188 C 110.832031 107.203125 110.777344 106.277344 111.285156 105.675781 C 111.792969 105.074219 112.710938 104.972656 113.34375 105.476562 C 113.976562 105.980469 114.074219 106.917969 113.527344 107.566406 C 112.980469 108.214844 112.042969 108.28125 111.4375 107.742188 Z M 108.609375 110.683594 C 108.046875 110.101562 108.0625 109.175781 108.613281 108.613281 C 109.164062 108.050781 110.089844 108.019531 110.683594 108.570312 C 111.277344 109.121094 111.304688 110.0625 110.710938 110.667969 C 110.117188 111.273438 109.175781 111.265625 108.609375 110.683594 Z M 105.574219 113.40625 C 105.054688 112.785156 105.140625 111.863281 105.730469 111.34375 C 106.320312 110.824219 107.246094 110.859375 107.796875 111.453125 C 108.347656 112.046875 108.304688 112.988281 107.667969 113.546875 C 107.03125 114.109375 106.089844 114.03125 105.574219 113.40625 Z M 102.34375 115.894531 C 101.875 115.234375 102.027344 114.324219 102.65625 113.851562 C 103.28125 113.378906 104.203125 113.480469 104.707031 114.113281 C 105.210938 114.746094 105.097656 115.679688 104.417969 116.191406 C 103.742188 116.699219 102.8125 116.550781 102.34375 115.894531 Z M 98.941406 118.121094 C 98.523438 117.429688 98.746094 116.535156 99.40625 116.113281 C 100.066406 115.691406 100.972656 115.863281 101.425781 116.53125 C 101.882812 117.199219 101.695312 118.121094 100.984375 118.578125 C 100.269531 119.03125 99.355469 118.8125 98.941406 118.121094 Z M 95.382812 120.074219 C 95.023438 119.355469 95.3125 118.480469 96 118.113281 C 96.691406 117.742188 97.578125 117.984375 97.980469 118.6875 C 98.378906 119.386719 98.125 120.289062 97.378906 120.6875 C 96.632812 121.085938 95.738281 120.796875 95.382812 120.074219 Z M 91.683594 121.734375 C 91.386719 120.988281 91.746094 120.144531 92.460938 119.832031 C 93.171875 119.519531 94.039062 119.832031 94.378906 120.558594 C 94.722656 121.289062 94.398438 122.164062 93.621094 122.503906 C 92.847656 122.839844 91.984375 122.480469 91.683594 121.734375 Z M 87.871094 123.082031 C 87.636719 122.3125 88.0625 121.503906 88.800781 121.253906 C 89.535156 121.003906 90.367188 121.382812 90.648438 122.136719 C 90.933594 122.886719 90.535156 123.734375 89.734375 124.007812 C 88.933594 124.277344 88.105469 123.847656 87.871094 123.082031 Z M 83.957031 124.097656 C 83.789062 123.3125 84.285156 122.542969 85.039062 122.355469 C 85.789062 122.171875 86.589844 122.621094 86.804688 123.394531 C 87.023438 124.167969 86.558594 124.976562 85.734375 125.179688 C 84.914062 125.382812 84.125 124.882812 83.957031 124.097656 Z M 79.960938 124.761719 C 79.863281 123.960938 80.429688 123.238281 81.199219 123.121094 C 81.964844 123.003906 82.71875 123.523438 82.867188 124.316406 C 83.015625 125.105469 82.480469 125.871094 81.640625 126.003906 C 80.800781 126.132812 80.058594 125.5625 79.960938 124.761719 Z M 75.902344 125.058594 C 75.882812 124.25 76.515625 123.578125 77.292969 123.535156 C 78.070312 123.488281 78.777344 124.078125 78.855469 124.882812 C 78.929688 125.683594 78.324219 126.402344 77.46875 126.457031 C 76.617188 126.511719 75.925781 125.871094 75.902344 125.058594 Z M 71.820312 124.972656 C 71.878906 124.167969 72.570312 123.558594 73.351562 123.582031 C 74.128906 123.605469 74.78125 124.261719 74.78125 125.074219 C 74.78125 125.886719 74.105469 126.546875 73.25 126.515625 C 72.390625 126.484375 71.765625 125.777344 71.820312 124.972656 Z M 67.789062 124.507812 C 67.917969 123.710938 68.664062 123.171875 69.433594 123.269531 C 70.199219 123.367188 70.785156 124.078125 70.710938 124.882812 C 70.632812 125.683594 69.90625 126.273438 69.058594 126.164062 C 68.214844 126.054688 67.660156 125.300781 67.789062 124.507812 Z M 63.828125 123.679688 C 64.027344 122.902344 64.816406 122.433594 65.570312 122.601562 C 66.328125 122.765625 66.84375 123.523438 66.695312 124.316406 C 66.546875 125.105469 65.769531 125.625 64.941406 125.441406 C 64.117188 125.257812 63.632812 124.457031 63.828125 123.679688 Z M 59.957031 122.511719 C 60.222656 121.753906 61.046875 121.355469 61.789062 121.585938 C 62.527344 121.820312 62.976562 122.621094 62.757812 123.394531 C 62.542969 124.167969 61.722656 124.617188 60.914062 124.363281 C 60.109375 124.109375 59.695312 123.269531 59.957031 122.511719 Z M 56.195312 121.023438 C 56.519531 120.289062 57.378906 119.957031 58.097656 120.253906 C 58.816406 120.546875 59.195312 121.382812 58.914062 122.136719 C 58.632812 122.886719 57.777344 123.265625 56.996094 122.945312 C 56.210938 122.628906 55.867188 121.757812 56.195312 121.023438 Z M 52.558594 119.230469 C 52.941406 118.519531 53.824219 118.257812 54.519531 118.613281 C 55.21875 118.964844 55.527344 119.832031 55.183594 120.558594 C 54.839844 121.289062 53.957031 121.597656 53.203125 121.214844 C 52.445312 120.832031 52.171875 119.9375 52.558594 119.230469 Z M 49.066406 117.148438 C 49.507812 116.472656 50.410156 116.28125 51.078125 116.6875 C 51.746094 117.097656 51.984375 117.984375 51.585938 118.6875 C 51.183594 119.386719 50.277344 119.625 49.554688 119.183594 C 48.832031 118.742188 48.625 117.828125 49.066406 117.148438 Z M 45.738281 114.800781 C 46.230469 114.160156 47.144531 114.035156 47.78125 114.496094 C 48.417969 114.953125 48.589844 115.863281 48.136719 116.53125 C 47.683594 117.199219 46.757812 117.367188 46.070312 116.871094 C 45.382812 116.375 45.246094 115.445312 45.738281 114.800781 Z M 42.59375 112.207031 C 43.132812 111.601562 44.054688 111.546875 44.65625 112.054688 C 45.257812 112.5625 45.363281 113.480469 44.855469 114.113281 C 44.351562 114.746094 43.417969 114.84375 42.769531 114.296875 C 42.117188 113.75 42.054688 112.8125 42.59375 112.207031 Z M 39.648438 109.382812 C 40.230469 108.816406 41.160156 108.832031 41.71875 109.382812 C 42.28125 109.933594 42.316406 110.859375 41.765625 111.453125 C 41.214844 112.046875 40.273438 112.074219 39.667969 111.480469 C 39.058594 110.886719 39.066406 109.945312 39.648438 109.382812 Z M 36.925781 106.34375 C 37.546875 105.828125 38.46875 105.910156 38.988281 106.5 C 39.507812 107.09375 39.472656 108.019531 38.878906 108.570312 C 38.285156 109.121094 37.347656 109.074219 36.785156 108.4375 C 36.226562 107.800781 36.304688 106.863281 36.925781 106.34375 Z M 34.441406 103.117188 C 35.097656 102.648438 36.011719 102.800781 36.484375 103.425781 C 36.957031 104.054688 36.851562 104.972656 36.21875 105.476562 C 35.585938 105.980469 34.652344 105.867188 34.144531 105.191406 C 33.632812 104.511719 33.78125 103.582031 34.441406 103.117188 Z M 32.210938 99.710938 C 32.902344 99.296875 33.796875 99.519531 34.21875 100.175781 C 34.644531 100.835938 34.46875 101.742188 33.800781 102.199219 C 33.132812 102.652344 32.214844 102.46875 31.757812 101.753906 C 31.300781 101.039062 31.519531 100.128906 32.210938 99.710938 Z M 30.257812 96.152344 C 30.976562 95.792969 31.851562 96.085938 32.21875 96.773438 C 32.589844 97.460938 32.347656 98.351562 31.648438 98.75 C 30.945312 99.152344 30.042969 98.894531 29.644531 98.148438 C 29.246094 97.402344 29.535156 96.511719 30.257812 96.152344 Z M 28.597656 92.457031 C 29.34375 92.160156 30.1875 92.519531 30.5 93.230469 C 30.8125 93.945312 30.5 94.808594 29.773438 95.152344 C 29.042969 95.496094 28.167969 95.171875 27.828125 94.394531 C 27.492188 93.621094 27.851562 92.757812 28.597656 92.457031 Z M 27.25 88.644531 C 28.019531 88.40625 28.828125 88.835938 29.078125 89.570312 C 29.328125 90.304688 28.949219 91.140625 28.195312 91.421875 C 27.445312 91.703125 26.597656 91.308594 26.324219 90.507812 C 26.054688 89.707031 26.484375 88.878906 27.25 88.644531 Z M 26.234375 84.730469 C 27.019531 84.5625 27.789062 85.058594 27.976562 85.8125 C 28.160156 86.5625 27.710938 87.363281 26.9375 87.578125 C 26.164062 87.796875 25.355469 87.332031 25.152344 86.507812 C 24.949219 85.6875 25.449219 84.898438 26.234375 84.730469 Z M 25.570312 80.734375 C 26.371094 80.636719 27.09375 81.203125 27.207031 81.96875 C 27.324219 82.734375 26.804688 83.492188 26.015625 83.640625 C 25.226562 83.789062 24.460938 83.253906 24.328125 82.414062 C 24.199219 81.574219 24.769531 80.832031 25.570312 80.734375 Z M 25.273438 76.675781 C 26.082031 76.65625 26.753906 77.289062 26.796875 78.066406 C 26.84375 78.84375 26.253906 79.550781 25.449219 79.625 C 24.648438 79.703125 23.929688 79.097656 23.875 78.242188 C 23.820312 77.390625 24.460938 76.699219 25.273438 76.675781 Z M 25.359375 72.59375 C 26.164062 72.652344 26.773438 73.34375 26.75 74.121094 C 26.722656 74.902344 26.070312 75.554688 25.257812 75.554688 C 24.445312 75.554688 23.785156 74.878906 23.816406 74.019531 C 23.847656 73.164062 24.554688 72.539062 25.359375 72.59375 Z M 25.824219 68.5625 C 26.617188 68.691406 27.15625 69.4375 27.058594 70.207031 C 26.960938 70.972656 26.253906 71.558594 25.449219 71.484375 C 24.644531 71.40625 24.058594 70.675781 24.167969 69.832031 C 24.277344 68.988281 25.03125 68.433594 25.824219 68.5625 Z M 26.652344 64.601562 C 27.429688 64.800781 27.898438 65.589844 27.730469 66.34375 C 27.5625 67.101562 26.804688 67.617188 26.015625 67.46875 C 25.226562 67.320312 24.707031 66.542969 24.890625 65.714844 C 25.074219 64.890625 25.875 64.402344 26.652344 64.601562 Z M 27.820312 60.730469 C 28.578125 60.996094 28.976562 61.820312 28.742188 62.5625 C 28.511719 63.300781 27.710938 63.75 26.9375 63.53125 C 26.164062 63.316406 25.714844 62.496094 25.96875 61.6875 C 26.222656 60.882812 27.058594 60.46875 27.820312 60.730469 Z M 29.308594 56.96875 C 30.042969 57.296875 30.375 58.152344 30.078125 58.871094 C 29.785156 59.589844 28.949219 59.96875 28.195312 59.6875 C 27.445312 59.40625 27.066406 58.550781 27.386719 57.769531 C 27.703125 56.984375 28.574219 56.640625 29.308594 56.96875 Z M 31.105469 53.332031 C 31.8125 53.71875 32.074219 54.601562 31.71875 55.296875 C 31.367188 55.992188 30.5 56.300781 29.773438 55.957031 C 29.042969 55.613281 28.734375 54.730469 29.117188 53.976562 C 29.5 53.222656 30.394531 52.945312 31.105469 53.332031 Z M 33.183594 49.839844 C 33.863281 50.28125 34.054688 51.183594 33.644531 51.851562 C 33.238281 52.519531 32.347656 52.761719 31.648438 52.359375 C 30.945312 51.960938 30.707031 51.050781 31.148438 50.328125 C 31.589844 49.605469 32.507812 49.402344 33.183594 49.839844 Z M 35.53125 46.515625 C 36.175781 47.003906 36.296875 47.921875 35.835938 48.558594 C 35.378906 49.195312 34.46875 49.367188 33.800781 48.910156 C 33.132812 48.457031 32.964844 47.53125 33.460938 46.84375 C 33.957031 46.15625 34.886719 46.023438 35.53125 46.515625 Z M 38.128906 43.371094 C 38.730469 43.910156 38.785156 44.832031 38.277344 45.433594 C 37.773438 46.035156 36.851562 46.136719 36.21875 45.632812 C 35.585938 45.128906 35.488281 44.191406 36.035156 43.542969 C 36.582031 42.894531 37.523438 42.832031 38.128906 43.371094 Z M 40.953125 40.425781 C 41.515625 41.007812 41.5 41.933594 40.949219 42.496094 C 40.398438 43.058594 39.472656 43.09375 38.878906 42.542969 C 38.285156 41.992188 38.261719 41.050781 38.855469 40.441406 C 39.449219 39.835938 40.390625 39.84375 40.953125 40.425781 Z M 43.988281 37.703125 C 44.507812 38.324219 44.421875 39.246094 43.832031 39.765625 C 43.242188 40.285156 42.316406 40.25 41.765625 39.65625 C 41.214844 39.0625 41.257812 38.121094 41.898438 37.5625 C 42.535156 37.003906 43.472656 37.078125 43.988281 37.703125 Z M 47.21875 35.21875 C 47.6875 35.875 47.535156 36.789062 46.910156 37.261719 C 46.28125 37.734375 45.363281 37.628906 44.859375 36.996094 C 44.351562 36.363281 44.46875 35.429688 45.144531 34.917969 C 45.824219 34.410156 46.75 34.558594 47.21875 35.21875 Z M 50.625 32.988281 C 51.039062 33.679688 50.816406 34.574219 50.15625 34.996094 C 49.5 35.421875 48.589844 35.246094 48.136719 34.578125 C 47.683594 33.910156 47.867188 32.992188 48.582031 32.535156 C 49.296875 32.078125 50.207031 32.296875 50.625 32.988281 Z M 54.183594 31.035156 C 54.542969 31.753906 54.25 32.628906 53.5625 32.996094 C 52.875 33.367188 51.984375 33.125 51.585938 32.425781 C 51.183594 31.722656 51.441406 30.824219 52.1875 30.421875 C 52.933594 30.023438 53.824219 30.316406 54.183594 31.035156 Z M 57.878906 29.375 C 58.179688 30.121094 57.816406 30.964844 57.105469 31.277344 C 56.390625 31.589844 55.527344 31.277344 55.183594 30.550781 C 54.839844 29.820312 55.167969 28.945312 55.941406 28.609375 C 56.71875 28.269531 57.582031 28.628906 57.878906 29.375 Z M 61.695312 28.027344 C 61.929688 28.796875 61.5 29.605469 60.765625 29.855469 C 60.03125 30.109375 59.195312 29.726562 58.914062 28.976562 C 58.632812 28.222656 59.027344 27.375 59.828125 27.105469 C 60.628906 26.832031 61.457031 27.261719 61.695312 28.027344 Z M 65.609375 27.015625 C 65.773438 27.800781 65.277344 28.570312 64.527344 28.753906 C 63.773438 28.941406 62.976562 28.488281 62.757812 27.71875 C 62.542969 26.945312 63.007812 26.132812 63.828125 25.929688 C 64.652344 25.726562 65.441406 26.226562 65.609375 27.015625 Z M 69.601562 26.347656 C 69.699219 27.148438 69.132812 27.871094 68.367188 27.988281 C 67.601562 28.105469 66.84375 27.585938 66.695312 26.796875 C 66.546875 26.007812 67.082031 25.238281 67.921875 25.109375 C 68.761719 24.976562 69.507812 25.546875 69.601562 26.347656 Z M 73.660156 26.050781 C 73.683594 26.863281 73.046875 27.53125 72.269531 27.578125 C 71.496094 27.621094 70.785156 27.03125 70.710938 26.230469 C 70.632812 25.425781 71.242188 24.707031 72.09375 24.652344 C 72.949219 24.601562 73.640625 25.238281 73.660156 26.050781 Z M 77.742188 26.136719 C 77.6875 26.945312 76.992188 27.554688 76.214844 27.527344 C 75.4375 27.503906 74.78125 26.851562 74.78125 26.035156 C 74.78125 25.222656 75.457031 24.5625 76.316406 24.597656 C 77.171875 24.628906 77.796875 25.332031 77.742188 26.136719 Z M 81.773438 26.605469 C 81.644531 27.398438 80.902344 27.9375 80.132812 27.839844 C 79.363281 27.742188 78.777344 27.03125 78.855469 26.230469 C 78.929688 25.425781 79.660156 24.835938 80.503906 24.945312 C 81.347656 25.054688 81.902344 25.8125 81.773438 26.605469 Z M 85.734375 27.429688 C 85.535156 28.207031 84.75 28.675781 83.992188 28.511719 C 83.238281 28.34375 82.71875 27.585938 82.867188 26.796875 C 83.015625 26.003906 83.792969 25.484375 84.621094 25.667969 C 85.449219 25.851562 85.933594 26.652344 85.734375 27.429688 Z M 89.605469 28.597656 C 89.34375 29.355469 88.515625 29.753906 87.777344 29.523438 C 87.039062 29.289062 86.589844 28.488281 86.804688 27.71875 C 87.023438 26.945312 87.84375 26.496094 88.648438 26.75 C 89.457031 27.003906 89.871094 27.839844 89.605469 28.597656 Z M 93.371094 30.085938 C 93.042969 30.824219 92.1875 31.152344 91.464844 30.859375 C 90.746094 30.5625 90.367188 29.726562 90.648438 28.976562 C 90.933594 28.222656 91.785156 27.84375 92.570312 28.164062 C 93.351562 28.484375 93.695312 29.351562 93.371094 30.085938 Z M 97.007812 31.882812 C 96.621094 32.589844 95.738281 32.851562 95.042969 32.496094 C 94.347656 32.144531 94.039062 31.277344 94.378906 30.550781 C 94.722656 29.824219 95.605469 29.511719 96.363281 29.894531 C 97.117188 30.277344 97.390625 31.171875 97.007812 31.882812 Z M 100.496094 33.960938 C 100.058594 34.640625 99.15625 34.832031 98.488281 34.421875 C 97.820312 34.015625 97.578125 33.125 97.980469 32.425781 C 98.378906 31.726562 99.285156 31.488281 100.011719 31.925781 C 100.734375 32.367188 100.9375 33.285156 100.496094 33.960938 Z M 103.824219 36.308594 C 103.335938 36.953125 102.417969 37.074219 101.78125 36.613281 C 101.144531 36.15625 100.972656 35.246094 101.425781 34.578125 C 101.882812 33.910156 102.804688 33.742188 103.496094 34.238281 C 104.183594 34.734375 104.316406 35.664062 103.824219 36.308594 Z M 106.96875 38.902344 C 106.433594 39.507812 105.507812 39.5625 104.90625 39.054688 C 104.304688 38.550781 104.203125 37.628906 104.707031 36.996094 C 105.210938 36.363281 106.148438 36.265625 106.796875 36.8125 C 107.445312 37.359375 107.507812 38.300781 106.96875 38.902344 Z M 109.914062 41.730469 C 109.332031 42.292969 108.40625 42.277344 107.84375 41.726562 C 107.28125 41.175781 107.246094 40.25 107.796875 39.65625 C 108.347656 39.0625 109.289062 39.035156 109.898438 39.628906 C 110.503906 40.226562 110.496094 41.167969 109.914062 41.730469 Z M 112.640625 44.765625 C 112.015625 45.285156 111.09375 45.199219 110.574219 44.609375 C 110.054688 44.019531 110.089844 43.09375 110.683594 42.542969 C 111.277344 41.992188 112.21875 42.035156 112.777344 42.671875 C 113.339844 43.308594 113.261719 44.25 112.640625 44.765625 Z M 115.125 47.996094 C 114.464844 48.464844 113.554688 48.3125 113.082031 47.683594 C 112.609375 47.058594 112.710938 46.136719 113.34375 45.632812 C 113.976562 45.128906 114.910156 45.242188 115.421875 45.921875 C 115.933594 46.597656 115.785156 47.527344 115.125 47.996094 Z M 117.355469 51.398438 C 116.664062 51.8125 115.765625 51.59375 115.34375 50.933594 C 114.921875 50.273438 115.09375 49.367188 115.761719 48.910156 C 116.429688 48.457031 117.351562 48.640625 117.808594 49.355469 C 118.265625 50.070312 118.046875 50.984375 117.355469 51.398438 Z M 119.308594 54.957031 C 118.585938 55.316406 117.714844 55.027344 117.34375 54.335938 C 116.976562 53.648438 117.21875 52.761719 117.917969 52.359375 C 118.617188 51.960938 119.519531 52.214844 119.917969 52.960938 C 120.316406 53.707031 120.027344 54.597656 119.308594 54.957031 Z M 120.96875 58.652344 C 120.222656 58.953125 119.375 58.59375 119.066406 57.878906 C 118.753906 57.164062 119.066406 56.300781 119.792969 55.957031 C 120.519531 55.613281 121.398438 55.941406 121.734375 56.714844 C 122.074219 57.492188 121.710938 58.355469 120.96875 58.652344 Z M 122.3125 62.46875 C 121.546875 62.703125 120.734375 62.273438 120.484375 61.539062 C 120.234375 60.804688 120.617188 59.96875 121.367188 59.6875 C 122.121094 59.40625 122.96875 59.800781 123.238281 60.601562 C 123.511719 61.402344 123.082031 62.230469 122.3125 62.46875 Z M 123.328125 66.382812 C 122.542969 66.550781 121.773438 66.050781 121.589844 65.300781 C 121.402344 64.546875 121.851562 63.75 122.625 63.53125 C 123.398438 63.316406 124.207031 63.78125 124.410156 64.601562 C 124.617188 65.425781 124.113281 66.214844 123.328125 66.382812 Z M 123.996094 70.375 C 123.195312 70.472656 122.472656 69.90625 122.355469 69.140625 C 122.238281 68.375 122.757812 67.617188 123.546875 67.46875 C 124.335938 67.320312 125.105469 67.855469 125.234375 68.695312 C 125.367188 69.535156 124.796875 70.28125 123.996094 70.375 Z M 124.292969 74.433594 C 123.480469 74.457031 122.8125 73.820312 122.765625 73.042969 C 122.722656 72.269531 123.3125 71.558594 124.113281 71.484375 C 124.917969 71.40625 125.636719 72.011719 125.691406 72.867188 C 125.742188 73.722656 125.105469 74.414062 124.292969 74.433594 Z M 124.292969 74.433594 " fill-opacity="1" fill-rule="nonzero"/>
  </g>
  <g clip-path="url(#62cd7348e2)">
    <path fill="#000000" d="M 16.457031 72.753906 L 17.609375 75.214844 L 20.195312 75.609375 L 18.324219 77.523438 L 18.769531 80.230469 L 16.457031 78.953125 L 14.140625 80.230469 L 14.582031 77.523438 L 12.714844 75.609375 L 15.296875 75.214844 Z M 16.457031 72.753906 " fill-opacity="1" fill-rule="nonzero"/>
    <path fill="#000000" d="M 16.4375 72.730469 L 17.59375 75.191406 L 20.179688 75.585938 L 18.308594 77.5 L 18.75 80.207031 L 16.4375 78.929688 L 14.125 80.207031 L 14.566406 77.5 L 12.695312 75.585938 L 15.28125 75.191406 Z M 16.4375 72.730469 " fill-opacity="1" fill-rule="nonzero"/>
    <path fill="#000000" d="M 16.4375 72.730469 L 17.59375 75.191406 L 20.179688 75.585938 L 18.308594 77.5 L 18.75 80.207031 L 16.4375 78.929688 L 14.125 80.207031 L 14.566406 77.5 L 12.695312 75.585938 L 15.28125 75.191406 Z M 16.4375 72.730469 " fill-opacity="1" fill-rule="nonzero"/>
    <path fill="#000000" d="M 16.4375 72.730469 L 17.59375 75.191406 L 20.179688 75.585938 L 18.308594 77.5 L 18.75 80.207031 L 16.4375 78.929688 L 14.125 80.207031 L 14.566406 77.5 L 12.695312 75.585938 L 15.28125 75.191406 Z M 16.4375 72.730469 " fill-opacity="1" fill-rule="nonzero"/>
  </g>
  
  
  
  
  
  
  
  <g clip-path="url(#78d8699207)">
    <path fill="#000000" d="M 133.527344 72.753906 L 134.683594 75.214844 L 137.269531 75.609375 L 135.398438 77.523438 L 135.839844 80.230469 L 133.527344 78.953125 L 131.214844 80.230469 L 131.65625 77.523438 L 129.785156 75.609375 L 132.371094 75.214844 Z M 133.527344 72.753906 " fill-opacity="1" fill-rule="nonzero"/>
    <path fill="#000000" d="M 133.511719 72.730469 L 134.667969 75.191406 L 137.25 75.585938 L 135.378906 77.5 L 135.824219 80.207031 L 133.511719 78.929688 L 131.199219 80.207031 L 131.640625 77.5 L 129.769531 75.585938 L 132.351562 75.191406 Z M 133.511719 72.730469 " fill-opacity="1" fill-rule="nonzero"/>
    <path fill="#000000" d="M 133.511719 72.730469 L 134.667969 75.191406 L 137.25 75.585938 L 135.378906 77.5 L 135.824219 80.207031 L 133.511719 78.929688 L 131.199219 80.207031 L 131.640625 77.5 L 129.769531 75.585938 L 132.351562 75.191406 Z M 133.511719 72.730469 " fill-opacity="1" fill-rule="nonzero"/>
    <path fill="#000000" d="M 133.511719 72.730469 L 134.667969 75.191406 L 137.25 75.585938 L 135.378906 77.5 L 135.824219 80.207031 L 133.511719 78.929688 L 131.199219 80.207031 L 131.640625 77.5 L 129.769531 75.585938 L 132.351562 75.191406 Z M 133.511719 72.730469 " fill-opacity="1" fill-rule="nonzero"/>
  </g>
  
  
  
  
  
  
  
  
  <g fill="#000000" fill-opacity="1">
    <g transform="translate(49.704686, 49.741739)">
      <g>
        <path d="M 1.203125 -0.953125 L -4.34375 -7.90625 L -3.515625 -8.578125 L 1.453125 -2.34375 L 4.75 -4.96875 L 5.328125 -4.25 Z M 1.203125 -0.953125 "/>
      </g>
    </g>
  </g>
  <g fill="#000000" fill-opacity="1">
    <g transform="translate(54.988479, 45.422195)">
      <g>
        <path d="M 0.9375 -0.484375 L 0.546875 -1.25 L 2.515625 -2.28125 L -0.8125 -8.640625 L -2.78125 -7.609375 L -3.171875 -8.359375 L 1.71875 -10.921875 L 2.109375 -10.171875 L 0.140625 -9.140625 L 3.46875 -2.78125 L 5.4375 -3.8125 L 5.828125 -3.046875 Z M 0.9375 -0.484375 "/>
      </g>
    </g>
  </g>
  <g fill="#000000" fill-opacity="1">
    <g transform="translate(61.001079, 42.193349)">
      <g>
        <path d="M 3.984375 -1.015625 C 2.941406 -0.703125 2.054688 -0.847656 1.328125 -1.453125 C 0.597656 -2.066406 0.0195312 -3.082031 -0.40625 -4.5 C -0.832031 -5.925781 -0.90625 -7.09375 -0.625 -8 C -0.34375 -8.914062 0.316406 -9.53125 1.359375 -9.84375 C 1.742188 -9.957031 2.09375 -10 2.40625 -9.96875 C 2.726562 -9.945312 3.015625 -9.878906 3.265625 -9.765625 C 3.523438 -9.648438 3.757812 -9.5 3.96875 -9.3125 C 4.175781 -9.132812 4.367188 -8.945312 4.546875 -8.75 L 3.78125 -8.078125 C 3.65625 -8.253906 3.519531 -8.410156 3.375 -8.546875 C 3.226562 -8.679688 3.066406 -8.789062 2.890625 -8.875 C 2.710938 -8.957031 2.519531 -9.007812 2.3125 -9.03125 C 2.113281 -9.050781 1.882812 -9.023438 1.625 -8.953125 C 0.957031 -8.753906 0.535156 -8.347656 0.359375 -7.734375 C 0.191406 -7.117188 0.234375 -6.382812 0.484375 -5.53125 L 0.890625 -4.140625 C 1.148438 -3.285156 1.519531 -2.648438 2 -2.234375 C 2.476562 -1.828125 3.050781 -1.722656 3.71875 -1.921875 C 3.976562 -1.992188 4.1875 -2.09375 4.34375 -2.21875 C 4.507812 -2.34375 4.640625 -2.488281 4.734375 -2.65625 C 4.828125 -2.832031 4.898438 -3.015625 4.953125 -3.203125 C 5.003906 -3.398438 5.039062 -3.601562 5.0625 -3.8125 L 6.046875 -3.671875 C 6.015625 -3.398438 5.960938 -3.132812 5.890625 -2.875 C 5.816406 -2.613281 5.703125 -2.363281 5.546875 -2.125 C 5.398438 -1.882812 5.195312 -1.664062 4.9375 -1.46875 C 4.6875 -1.28125 4.367188 -1.128906 3.984375 -1.015625 Z M 3.984375 -1.015625 "/>
      </g>
    </g>
  </g>
  <g fill="#000000" fill-opacity="1">
    <g transform="translate(67.520357, 40.174479)">
      <g>
        <path d="M 1.140625 -0.109375 L 0.28125 -8.953125 L 5.734375 -9.484375 L 5.828125 -8.5625 L 1.4375 -8.140625 L 1.71875 -5.171875 L 5.953125 -5.578125 L 6.046875 -4.640625 L 1.8125 -4.234375 L 2.109375 -1.140625 L 6.5 -1.5625 L 6.59375 -0.640625 Z M 1.140625 -0.109375 "/>
      </g>
    </g>
  </g>
  <g fill="#000000" fill-opacity="1">
    <g transform="translate(74.305458, 39.440175)">
      <g>
        <path d="M 2.78125 -7.296875 L 2.6875 -7.3125 L 1.96875 0.1875 L 1.015625 0.09375 L 1.875 -8.75 L 3.375 -8.59375 L 5.671875 -0.90625 L 5.765625 -0.890625 L 6.484375 -8.296875 L 7.453125 -8.203125 L 6.59375 0.640625 L 5.078125 0.484375 Z M 2.78125 -7.296875 "/>
      </g>
    </g>
  </g>
  <g fill="#000000" fill-opacity="1">
    <g transform="translate(81.105714, 40.017563)">
      <g>
        <path d="M 3.59375 1.234375 C 2.820312 1.003906 2.234375 0.675781 1.828125 0.25 C 1.421875 -0.175781 1.128906 -0.648438 0.953125 -1.171875 L 1.859375 -1.59375 C 2.085938 -1.070312 2.351562 -0.65625 2.65625 -0.34375 C 2.96875 -0.03125 3.378906 0.203125 3.890625 0.359375 C 4.503906 0.535156 5.015625 0.53125 5.421875 0.34375 C 5.835938 0.15625 6.125 -0.1875 6.28125 -0.6875 C 6.40625 -1.113281 6.382812 -1.472656 6.21875 -1.765625 C 6.050781 -2.066406 5.691406 -2.351562 5.140625 -2.625 L 4.234375 -3.078125 C 3.828125 -3.273438 3.503906 -3.484375 3.265625 -3.703125 C 3.035156 -3.929688 2.863281 -4.175781 2.75 -4.4375 C 2.644531 -4.707031 2.59375 -4.976562 2.59375 -5.25 C 2.59375 -5.519531 2.632812 -5.789062 2.71875 -6.0625 C 2.945312 -6.832031 3.375 -7.34375 4 -7.59375 C 4.632812 -7.84375 5.390625 -7.835938 6.265625 -7.578125 C 6.953125 -7.367188 7.492188 -7.082031 7.890625 -6.71875 C 8.285156 -6.351562 8.566406 -5.921875 8.734375 -5.421875 L 7.828125 -5 C 7.679688 -5.382812 7.46875 -5.722656 7.1875 -6.015625 C 6.914062 -6.304688 6.515625 -6.53125 5.984375 -6.6875 C 5.398438 -6.863281 4.921875 -6.875 4.546875 -6.71875 C 4.171875 -6.5625 3.910156 -6.242188 3.765625 -5.765625 C 3.648438 -5.378906 3.671875 -5.03125 3.828125 -4.71875 C 3.992188 -4.414062 4.359375 -4.125 4.921875 -3.84375 L 5.796875 -3.421875 C 6.179688 -3.210938 6.492188 -2.988281 6.734375 -2.75 C 6.984375 -2.519531 7.160156 -2.273438 7.265625 -2.015625 C 7.378906 -1.765625 7.4375 -1.503906 7.4375 -1.234375 C 7.445312 -0.960938 7.410156 -0.6875 7.328125 -0.40625 C 7.097656 0.375 6.65625 0.910156 6 1.203125 C 5.34375 1.503906 4.539062 1.515625 3.59375 1.234375 Z M 3.59375 1.234375 "/>
      </g>
    </g>
  </g>
  <g fill="#000000" fill-opacity="1">
    <g transform="translate(87.669881, 41.885319)">
      <g>
        <path d="M 1.015625 0.53125 L 5.125 -7.34375 L 9.984375 -4.8125 L 9.5625 -3.984375 L 5.65625 -6.015625 L 4.265625 -3.375 L 8.03125 -1.40625 L 7.59375 -0.578125 L 3.828125 -2.546875 L 2.390625 0.21875 L 6.296875 2.25 L 5.875 3.0625 Z M 1.015625 0.53125 "/>
      </g>
    </g>
  </g>
  <g fill="#000000" fill-opacity="1">
    <g transform="translate(93.755454, 44.974435)">
      <g>
        <path d="M 6.484375 -6.203125 L 8.421875 -4.65625 C 9.273438 -3.96875 9.675781 -3.164062 9.625 -2.25 C 9.570312 -1.332031 9.085938 -0.300781 8.171875 0.84375 C 7.253906 1.988281 6.351562 2.6875 5.46875 2.9375 C 4.59375 3.195312 3.726562 2.984375 2.875 2.296875 L 0.9375 0.75 Z M 3.421875 1.546875 C 3.984375 1.992188 4.554688 2.132812 5.140625 1.96875 C 5.734375 1.8125 6.3125 1.378906 6.875 0.671875 L 7.734375 -0.390625 C 8.296875 -1.097656 8.585938 -1.753906 8.609375 -2.359375 C 8.640625 -2.972656 8.375 -3.503906 7.8125 -3.953125 L 6.75 -4.796875 L 2.359375 0.703125 Z M 3.421875 1.546875 "/>
      </g>
    </g>
  </g>
  <g fill="#000000" fill-opacity="1">
    <g transform="translate(40.977299, 87.793132)">
      <g>
        <path d="M 0.984375 0 L 0.984375 -7.625 L 3.75 -7.625 C 4.457031 -7.625 5 -7.429688 5.375 -7.046875 C 5.75 -6.660156 5.9375 -6.117188 5.9375 -5.421875 C 5.9375 -4.734375 5.75 -4.195312 5.375 -3.8125 C 5 -3.425781 4.457031 -3.234375 3.75 -3.234375 L 1.90625 -3.234375 L 1.90625 0 Z M 1.90625 -4.03125 L 3.734375 -4.03125 C 4.117188 -4.03125 4.414062 -4.125 4.625 -4.3125 C 4.84375 -4.507812 4.953125 -4.785156 4.953125 -5.140625 L 4.953125 -5.71875 C 4.953125 -6.070312 4.84375 -6.34375 4.625 -6.53125 C 4.414062 -6.726562 4.117188 -6.828125 3.734375 -6.828125 L 1.90625 -6.828125 Z M 1.90625 -4.03125 "/>
      </g>
    </g>
  </g>
  <g fill="#000000" fill-opacity="1">
    <g transform="translate(46.89682, 87.793132)">
      <g>
        <path d="M 1.90625 0 L 0.984375 0 L 0.984375 -7.625 L 3.75 -7.625 C 4.457031 -7.625 5 -7.429688 5.375 -7.046875 C 5.75 -6.660156 5.9375 -6.117188 5.9375 -5.421875 C 5.9375 -4.804688 5.773438 -4.3125 5.453125 -3.9375 C 5.128906 -3.570312 4.660156 -3.359375 4.046875 -3.296875 L 6 0 L 4.96875 0 L 3.109375 -3.25 L 1.90625 -3.25 Z M 3.734375 -4.03125 C 4.117188 -4.03125 4.414062 -4.125 4.625 -4.3125 C 4.84375 -4.507812 4.953125 -4.785156 4.953125 -5.140625 L 4.953125 -5.71875 C 4.953125 -6.070312 4.84375 -6.34375 4.625 -6.53125 C 4.414062 -6.726562 4.117188 -6.828125 3.734375 -6.828125 L 1.90625 -6.828125 L 1.90625 -4.03125 Z M 3.734375 -4.03125 "/>
      </g>
    </g>
  </g>
  <g fill="#000000" fill-opacity="1">
    <g transform="translate(52.816333, 87.793132)">
      <g>
        <path d="M 3.28125 0.125 C 2.8125 0.125 2.410156 0.0351562 2.078125 -0.140625 C 1.742188 -0.316406 1.46875 -0.570312 1.25 -0.90625 C 1.03125 -1.238281 0.867188 -1.648438 0.765625 -2.140625 C 0.660156 -2.628906 0.609375 -3.1875 0.609375 -3.8125 C 0.609375 -4.425781 0.660156 -4.976562 0.765625 -5.46875 C 0.867188 -5.96875 1.03125 -6.382812 1.25 -6.71875 C 1.46875 -7.050781 1.742188 -7.304688 2.078125 -7.484375 C 2.410156 -7.660156 2.8125 -7.75 3.28125 -7.75 C 3.738281 -7.75 4.132812 -7.660156 4.46875 -7.484375 C 4.8125 -7.304688 5.09375 -7.050781 5.3125 -6.71875 C 5.53125 -6.382812 5.6875 -5.96875 5.78125 -5.46875 C 5.882812 -4.976562 5.9375 -4.425781 5.9375 -3.8125 C 5.9375 -3.1875 5.882812 -2.628906 5.78125 -2.140625 C 5.6875 -1.648438 5.53125 -1.238281 5.3125 -0.90625 C 5.09375 -0.570312 4.8125 -0.316406 4.46875 -0.140625 C 4.132812 0.0351562 3.738281 0.125 3.28125 0.125 Z M 3.28125 -0.671875 C 3.582031 -0.671875 3.835938 -0.726562 4.046875 -0.84375 C 4.265625 -0.96875 4.441406 -1.140625 4.578125 -1.359375 C 4.710938 -1.578125 4.8125 -1.835938 4.875 -2.140625 C 4.9375 -2.453125 4.96875 -2.800781 4.96875 -3.1875 L 4.96875 -4.4375 C 4.96875 -4.8125 4.9375 -5.15625 4.875 -5.46875 C 4.8125 -5.78125 4.710938 -6.046875 4.578125 -6.265625 C 4.441406 -6.484375 4.265625 -6.648438 4.046875 -6.765625 C 3.835938 -6.890625 3.582031 -6.953125 3.28125 -6.953125 C 2.96875 -6.953125 2.707031 -6.890625 2.5 -6.765625 C 2.289062 -6.648438 2.113281 -6.484375 1.96875 -6.265625 C 1.832031 -6.046875 1.734375 -5.78125 1.671875 -5.46875 C 1.609375 -5.15625 1.578125 -4.8125 1.578125 -4.4375 L 1.578125 -3.1875 C 1.578125 -2.800781 1.609375 -2.453125 1.671875 -2.140625 C 1.734375 -1.835938 1.832031 -1.578125 1.96875 -1.359375 C 2.113281 -1.140625 2.289062 -0.96875 2.5 -0.84375 C 2.707031 -0.726562 2.96875 -0.671875 3.28125 -0.671875 Z M 3.28125 -0.671875 "/>
      </g>
    </g>
  </g>
  <g fill="#000000" fill-opacity="1">
    <g transform="translate(58.735858, 87.793132)">
      <g>
        <path d="M 0.984375 0 L 0.984375 -7.625 L 5.78125 -7.625 L 5.78125 -6.828125 L 1.90625 -6.828125 L 1.90625 -4.265625 L 5.46875 -4.265625 L 5.46875 -3.46875 L 1.90625 -3.46875 L 1.90625 0 Z M 0.984375 0 "/>
      </g>
    </g>
  </g>
  <g fill="#000000" fill-opacity="1">
    <g transform="translate(64.655379, 87.793132)">
      <g>
        <path d="M 0.984375 0 L 0.984375 -7.625 L 5.671875 -7.625 L 5.671875 -6.828125 L 1.90625 -6.828125 L 1.90625 -4.265625 L 5.546875 -4.265625 L 5.546875 -3.46875 L 1.90625 -3.46875 L 1.90625 -0.796875 L 5.671875 -0.796875 L 5.671875 0 Z M 0.984375 0 "/>
      </g>
    </g>
  </g>
  <g fill="#000000" fill-opacity="1">
    <g transform="translate(70.574899, 87.793132)">
      <g>
        <path d="M 3.25 0.125 C 2.570312 0.125 2.015625 0 1.578125 -0.25 C 1.140625 -0.5 0.773438 -0.820312 0.484375 -1.21875 L 1.15625 -1.765625 C 1.457031 -1.390625 1.769531 -1.109375 2.09375 -0.921875 C 2.425781 -0.742188 2.820312 -0.65625 3.28125 -0.65625 C 3.84375 -0.65625 4.265625 -0.78125 4.546875 -1.03125 C 4.835938 -1.289062 4.984375 -1.648438 4.984375 -2.109375 C 4.984375 -2.484375 4.878906 -2.769531 4.671875 -2.96875 C 4.460938 -3.175781 4.097656 -3.328125 3.578125 -3.421875 L 2.71875 -3.5625 C 2.34375 -3.625 2.03125 -3.71875 1.78125 -3.84375 C 1.53125 -3.976562 1.328125 -4.140625 1.171875 -4.328125 C 1.023438 -4.515625 0.914062 -4.71875 0.84375 -4.9375 C 0.78125 -5.164062 0.75 -5.398438 0.75 -5.640625 C 0.75 -6.335938 0.976562 -6.863281 1.4375 -7.21875 C 1.894531 -7.570312 2.515625 -7.75 3.296875 -7.75 C 3.910156 -7.75 4.425781 -7.644531 4.84375 -7.4375 C 5.257812 -7.238281 5.597656 -6.957031 5.859375 -6.59375 L 5.203125 -6.03125 C 4.992188 -6.300781 4.738281 -6.523438 4.4375 -6.703125 C 4.144531 -6.878906 3.757812 -6.96875 3.28125 -6.96875 C 2.769531 -6.96875 2.375 -6.859375 2.09375 -6.640625 C 1.820312 -6.421875 1.6875 -6.09375 1.6875 -5.65625 C 1.6875 -5.3125 1.785156 -5.03125 1.984375 -4.8125 C 2.191406 -4.601562 2.566406 -4.453125 3.109375 -4.359375 L 3.9375 -4.21875 C 4.300781 -4.15625 4.609375 -4.054688 4.859375 -3.921875 C 5.117188 -3.785156 5.328125 -3.625 5.484375 -3.4375 C 5.640625 -3.257812 5.75 -3.054688 5.8125 -2.828125 C 5.882812 -2.609375 5.921875 -2.375 5.921875 -2.125 C 5.921875 -1.425781 5.6875 -0.875 5.21875 -0.46875 C 4.757812 -0.0703125 4.101562 0.125 3.25 0.125 Z M 3.25 0.125 "/>
      </g>
    </g>
  </g>
  <g fill="#000000" fill-opacity="1">
    <g transform="translate(76.494415, 87.793132)">
      <g>
        <path d="M 3.25 0.125 C 2.570312 0.125 2.015625 0 1.578125 -0.25 C 1.140625 -0.5 0.773438 -0.820312 0.484375 -1.21875 L 1.15625 -1.765625 C 1.457031 -1.390625 1.769531 -1.109375 2.09375 -0.921875 C 2.425781 -0.742188 2.820312 -0.65625 3.28125 -0.65625 C 3.84375 -0.65625 4.265625 -0.78125 4.546875 -1.03125 C 4.835938 -1.289062 4.984375 -1.648438 4.984375 -2.109375 C 4.984375 -2.484375 4.878906 -2.769531 4.671875 -2.96875 C 4.460938 -3.175781 4.097656 -3.328125 3.578125 -3.421875 L 2.71875 -3.5625 C 2.34375 -3.625 2.03125 -3.71875 1.78125 -3.84375 C 1.53125 -3.976562 1.328125 -4.140625 1.171875 -4.328125 C 1.023438 -4.515625 0.914062 -4.71875 0.84375 -4.9375 C 0.78125 -5.164062 0.75 -5.398438 0.75 -5.640625 C 0.75 -6.335938 0.976562 -6.863281 1.4375 -7.21875 C 1.894531 -7.570312 2.515625 -7.75 3.296875 -7.75 C 3.910156 -7.75 4.425781 -7.644531 4.84375 -7.4375 C 5.257812 -7.238281 5.597656 -6.957031 5.859375 -6.59375 L 5.203125 -6.03125 C 4.992188 -6.300781 4.738281 -6.523438 4.4375 -6.703125 C 4.144531 -6.878906 3.757812 -6.96875 3.28125 -6.96875 C 2.769531 -6.96875 2.375 -6.859375 2.09375 -6.640625 C 1.820312 -6.421875 1.6875 -6.09375 1.6875 -5.65625 C 1.6875 -5.3125 1.785156 -5.03125 1.984375 -4.8125 C 2.191406 -4.601562 2.566406 -4.453125 3.109375 -4.359375 L 3.9375 -4.21875 C 4.300781 -4.15625 4.609375 -4.054688 4.859375 -3.921875 C 5.117188 -3.785156 5.328125 -3.625 5.484375 -3.4375 C 5.640625 -3.257812 5.75 -3.054688 5.8125 -2.828125 C 5.882812 -2.609375 5.921875 -2.375 5.921875 -2.125 C 5.921875 -1.425781 5.6875 -0.875 5.21875 -0.46875 C 4.757812 -0.0703125 4.101562 0.125 3.25 0.125 Z M 3.25 0.125 "/>
      </g>
    </g>
  </g>
  <g fill="#000000" fill-opacity="1">
    <g transform="translate(82.413935, 87.793132)">
      <g>
        <path d="M 0.921875 0 L 0.921875 -0.734375 L 2.8125 -0.734375 L 2.8125 -6.890625 L 0.921875 -6.890625 L 0.921875 -7.625 L 5.640625 -7.625 L 5.640625 -6.890625 L 3.734375 -6.890625 L 3.734375 -0.734375 L 5.640625 -0.734375 L 5.640625 0 Z M 0.921875 0 "/>
      </g>
    </g>
  </g>
  <g fill="#000000" fill-opacity="1">
    <g transform="translate(88.333456, 87.793132)">
      <g>
        <path d="M 3.28125 0.125 C 2.8125 0.125 2.410156 0.0351562 2.078125 -0.140625 C 1.742188 -0.316406 1.46875 -0.570312 1.25 -0.90625 C 1.03125 -1.238281 0.867188 -1.648438 0.765625 -2.140625 C 0.660156 -2.628906 0.609375 -3.1875 0.609375 -3.8125 C 0.609375 -4.425781 0.660156 -4.976562 0.765625 -5.46875 C 0.867188 -5.96875 1.03125 -6.382812 1.25 -6.71875 C 1.46875 -7.050781 1.742188 -7.304688 2.078125 -7.484375 C 2.410156 -7.660156 2.8125 -7.75 3.28125 -7.75 C 3.738281 -7.75 4.132812 -7.660156 4.46875 -7.484375 C 4.8125 -7.304688 5.09375 -7.050781 5.3125 -6.71875 C 5.53125 -6.382812 5.6875 -5.96875 5.78125 -5.46875 C 5.882812 -4.976562 5.9375 -4.425781 5.9375 -3.8125 C 5.9375 -3.1875 5.882812 -2.628906 5.78125 -2.140625 C 5.6875 -1.648438 5.53125 -1.238281 5.3125 -0.90625 C 5.09375 -0.570312 4.8125 -0.316406 4.46875 -0.140625 C 4.132812 0.0351562 3.738281 0.125 3.28125 0.125 Z M 3.28125 -0.671875 C 3.582031 -0.671875 3.835938 -0.726562 4.046875 -0.84375 C 4.265625 -0.96875 4.441406 -1.140625 4.578125 -1.359375 C 4.710938 -1.578125 4.8125 -1.835938 4.875 -2.140625 C 4.9375 -2.453125 4.96875 -2.800781 4.96875 -3.1875 L 4.96875 -4.4375 C 4.96875 -4.8125 4.9375 -5.15625 4.875 -5.46875 C 4.8125 -5.78125 4.710938 -6.046875 4.578125 -6.265625 C 4.441406 -6.484375 4.265625 -6.648438 4.046875 -6.765625 C 3.835938 -6.890625 3.582031 -6.953125 3.28125 -6.953125 C 2.96875 -6.953125 2.707031 -6.890625 2.5 -6.765625 C 2.289062 -6.648438 2.113281 -6.484375 1.96875 -6.265625 C 1.832031 -6.046875 1.734375 -5.78125 1.671875 -5.46875 C 1.609375 -5.15625 1.578125 -4.8125 1.578125 -4.4375 L 1.578125 -3.1875 C 1.578125 -2.800781 1.609375 -2.453125 1.671875 -2.140625 C 1.734375 -1.835938 1.832031 -1.578125 1.96875 -1.359375 C 2.113281 -1.140625 2.289062 -0.96875 2.5 -0.84375 C 2.707031 -0.726562 2.96875 -0.671875 3.28125 -0.671875 Z M 3.28125 -0.671875 "/>
      </g>
    </g>
  </g>
  <g fill="#000000" fill-opacity="1">
    <g transform="translate(94.252979, 87.793132)">
      <g>
        <path d="M 1.78125 -6.453125 L 1.703125 -6.453125 L 1.703125 0 L 0.875 0 L 0.875 -7.625 L 2.171875 -7.625 L 4.765625 -1.234375 L 4.84375 -1.234375 L 4.84375 -7.625 L 5.671875 -7.625 L 5.671875 0 L 4.375 0 Z M 1.78125 -6.453125 "/>
      </g>
    </g>
  </g>
  <g fill="#000000" fill-opacity="1">
    <g transform="translate(100.172499, 87.793132)">
      <g>
        <path d="M 5.25 0 L 4.609375 -2.171875 L 1.9375 -2.171875 L 1.28125 0 L 0.34375 0 L 2.671875 -7.625 L 3.890625 -7.625 L 6.21875 0 Z M 3.3125 -6.65625 L 3.21875 -6.65625 L 2.15625 -2.96875 L 4.390625 -2.96875 Z M 3.3125 -6.65625 "/>
      </g>
    </g>
  </g>
  <g fill="#000000" fill-opacity="1">
    <g transform="translate(106.092012, 87.793132)">
      <g>
        <path d="M 1.3125 0 L 1.3125 -7.625 L 2.234375 -7.625 L 2.234375 -0.796875 L 5.84375 -0.796875 L 5.84375 0 Z M 1.3125 0 "/>
      </g>
    </g>
  </g>
</svg>