 <svg
  xmlns="http://www.w3.org/2000/svg"
  xmlns:xlink="http://www.w3.org/1999/xlink"
  width="200"
  zoomAndPan="magnify"
  viewBox="0 0 150 149.999998"
  height="200"
  preserveAspectRatio="xMidYMid meet"
  version="1.0"
  class="curved-svg"
>
  <defs>
    <g></g>
    <clipPath id="9ce449a3a4">
      <path
        d="M 20.671875 20.710938 L 129.421875 20.710938 L 129.421875 129.460938 L 20.671875 129.460938 Z M 20.671875 20.710938 "
        clip-rule="nonzero"
      ></path>
    </clipPath>
    <clipPath id="db375a39a5">
      <path
        d="M 75.046875 20.710938 C 45.015625 20.710938 20.671875 45.054688 20.671875 75.085938 C 20.671875 105.113281 45.015625 129.460938 75.046875 129.460938 C 105.074219 129.460938 129.417969 105.113281 129.417969 75.085938 C 129.417969 45.054688 105.074219 20.710938 75.046875 20.710938 "
        clip-rule="nonzero"
      ></path>
    </clipPath>
    <clipPath id="6739606f87">
      <path
        d="M 1.199219 1.199219 L 148.949219 1.199219 L 148.949219 148.949219 L 1.199219 148.949219 Z M 1.199219 1.199219 "
        clip-rule="nonzero"
      ></path>
    </clipPath>
    <clipPath id="d7674a01ee">
      <path
        d="M 75.074219 1.199219 C 34.273438 1.199219 1.199219 34.273438 1.199219 75.074219 C 1.199219 115.875 34.273438 148.949219 75.074219 148.949219 C 115.875 148.949219 148.949219 115.875 148.949219 75.074219 C 148.949219 34.273438 115.875 1.199219 75.074219 1.199219 "
        clip-rule="nonzero"
      ></path>
    </clipPath>
    <clipPath id="a62e258abe">
      <path
        d="M 6.972656 70.257812 L 16.921875 70.257812 L 16.921875 79.742188 L 6.972656 79.742188 Z M 6.972656 70.257812 "
        clip-rule="nonzero"
      ></path>
    </clipPath>
    <clipPath id="4297c601e4">
      <path
        d="M 11.945312 70.257812 L 13.121094 73.878906 L 16.921875 73.878906 L 13.847656 76.121094 L 15.019531 79.742188 L 11.945312 77.503906 L 8.871094 79.742188 L 10.046875 76.121094 L 6.972656 73.878906 L 10.773438 73.878906 L 11.945312 70.257812 "
        clip-rule="nonzero"
      ></path>
    </clipPath>
    <clipPath id="8db1ba722d">
      <path
        d="M 133.078125 70.257812 L 143.027344 70.257812 L 143.027344 79.742188 L 133.078125 79.742188 Z M 133.078125 70.257812 "
        clip-rule="nonzero"
        class="right-star"
      ></path>
    </clipPath>
    <clipPath id="b055fafc4e">
      <path
        d="M 138.054688 70.257812 L 139.226562 73.878906 L 143.027344 73.878906 L 139.953125 76.121094 L 141.128906 79.742188 L 138.054688 77.503906 L 134.980469 79.742188 L 136.152344 76.121094 L 133.078125 73.878906 L 136.878906 73.878906 L 138.054688 70.257812 "
        clip-rule="nonzero"
      ></path>
    </clipPath>
    <path
      id="nameTextPath"
      d="M17.5,75 A20,20 0 0,1 132.5,75"
    ></path>
  </defs>

  <style>
    text {
      font-family: Arial Narrow, sans-serif;
    }
    .spaced-text {
      font-size: 14px;
      line-height: 1;
      letter-spacing: 1.25px;
    }
    .curved-text-container {
      transform: translateY(0);
    }
  </style>

  <text class="curved-text-container">
    <textPath
      href="#nameTextPath"
      text-anchor="middle"
      startOffset="50%"
      class="textPath spaced-text curved-text"
      id="nameText"
    >
      JOHN M. DOE THE THIRD
    </textPath>
  </text>

  <g clip-path="url(#9ce449a3a4)">
    <g clip-path="url(#db375a39a5)">
      <path
        stroke-linecap="butt"
        transform="matrix(0.750647, 0, 0, 0.751214, 20.67362, 20.709724)"
        fill="none"
        stroke-linejoin="miter"
        d="M 72.435175 0.00161582 C 32.428027 0.00161582 -0.00232461 32.407488 -0.00232461 72.384436 C -0.00232461 112.356185 32.428027 144.767257 72.435175 144.767257 C 112.437119 144.767257 144.86747 112.356185 144.86747 72.384436 C 144.86747 32.407488 112.437119 0.00161582 72.435175 0.00161582 "
        stroke="#000000"
        stroke-width="4"
        stroke-opacity="1"
        stroke-miterlimit="4"
        class="inner-circle"
      ></path>
    </g>
  </g>
  <g clip-path="url(#6739606f87)">
    <g clip-path="url(#d7674a01ee)">
      <path
        stroke-linecap="butt"
        transform="matrix(0.750774, 0, 0, 0.750774, 1.1987, 1.198701)"
        fill="none"
        stroke-linejoin="miter"
        d="M 98.39914 0.00069028 C 44.054185 0.00069028 0.000691278 44.054184 0.000691278 98.399139 C 0.000691278 152.744095 44.054185 196.797588 98.39914 196.797588 C 152.744096 196.797588 196.797589 152.744095 196.797589 98.399139 C 196.797589 44.054184 152.744096 0.00069028 98.39914 0.00069028 "
        stroke="#000000"
        stroke-width="4"
        stroke-opacity="1"
        stroke-miterlimit="4"
        class="outer-circle"
      ></path>
    </g>
  </g>

  <g fill="#000000" fill-opacity="1">
    <g transform="translate(48.294139, 54.349972)">
      <g>
        <path
          d="M 0.703125 0 L 0.703125 -8.59375 L 1.640625 -8.59375 L 1.640625 -1.015625 L 5.109375 -1.015625 L 5.109375 0 Z M 0.703125 0 "
        ></path>
      </g>
    </g>
  </g>
  <g fill="#000000" fill-opacity="1">
    <g transform="translate(54.366795, 54.349972)">
      <g>
        <path
          d="M 0.9375 0 L 0.9375 -8.59375 L 1.875 -8.59375 L 1.875 0 Z M 0.9375 0 "
        ></path>
      </g>
    </g>
  </g>
  <g fill="#000000" fill-opacity="1">
    <g transform="translate(57.703123, 54.349972)">
      <g>
        <path
          d="M 5.765625 -3.015625 L 6.703125 -2.71875 C 6.492188 -1.757812 6.128906 -1.039062 5.609375 -0.5625 C 5.085938 -0.09375 4.457031 0.140625 3.71875 0.140625 C 3.070312 0.140625 2.515625 -0.015625 2.046875 -0.328125 C 1.585938 -0.648438 1.207031 -1.160156 0.90625 -1.859375 C 0.613281 -2.566406 0.46875 -3.398438 0.46875 -4.359375 C 0.46875 -5.296875 0.613281 -6.09375 0.90625 -6.75 C 1.207031 -7.40625 1.609375 -7.898438 2.109375 -8.234375 C 2.609375 -8.566406 3.171875 -8.734375 3.796875 -8.734375 C 4.472656 -8.734375 5.054688 -8.519531 5.546875 -8.09375 C 6.035156 -7.675781 6.378906 -7.054688 6.578125 -6.234375 L 5.65625 -5.96875 C 5.34375 -7.164062 4.71875 -7.765625 3.78125 -7.765625 C 3.3125 -7.765625 2.90625 -7.644531 2.5625 -7.40625 C 2.21875 -7.164062 1.941406 -6.789062 1.734375 -6.28125 C 1.535156 -5.769531 1.4375 -5.128906 1.4375 -4.359375 C 1.4375 -3.179688 1.640625 -2.296875 2.046875 -1.703125 C 2.460938 -1.117188 3.015625 -0.828125 3.703125 -0.828125 C 4.210938 -0.828125 4.648438 -1.003906 5.015625 -1.359375 C 5.390625 -1.722656 5.640625 -2.273438 5.765625 -3.015625 Z M 5.765625 -3.015625 "
        ></path>
      </g>
    </g>
  </g>
  <g fill="#000000" fill-opacity="1">
    <g transform="translate(65.404686, 54.349972)">
      <g>
        <path
          d="M 0.78125 0 L 0.78125 -8.59375 L 5.875 -8.59375 L 5.875 -7.578125 L 1.71875 -7.578125 L 1.71875 -4.953125 L 5.609375 -4.953125 L 5.609375 -3.9375 L 1.71875 -3.9375 L 1.71875 -1.015625 L 6.03125 -1.015625 L 6.03125 0 Z M 0.78125 0 "
        ></path>
      </g>
    </g>
  </g>
  <g fill="#000000" fill-opacity="1">
    <g transform="translate(72.567185, 54.349972)">
      <g>
        <path
          d="M 0.734375 0 L 0.734375 -8.59375 L 1.6875 -8.59375 L 5.390625 -1.84375 L 5.390625 -8.59375 L 6.28125 -8.59375 L 6.28125 0 L 5.328125 0 L 1.625 -6.75 L 1.625 0 Z M 0.734375 0 "
        ></path>
      </g>
    </g>
  </g>
  <g fill="#000000" fill-opacity="1">
    <g transform="translate(80.268746, 54.349972)">
      <g>
        <path
          d="M 0.453125 -2.765625 L 1.328125 -2.859375 C 1.367188 -2.378906 1.472656 -2.007812 1.640625 -1.75 C 1.804688 -1.488281 2.039062 -1.273438 2.34375 -1.109375 C 2.65625 -0.953125 3.007812 -0.875 3.40625 -0.875 C 3.957031 -0.875 4.382812 -1.007812 4.6875 -1.28125 C 5 -1.550781 5.15625 -1.90625 5.15625 -2.34375 C 5.15625 -2.59375 5.097656 -2.8125 4.984375 -3 C 4.867188 -3.1875 4.695312 -3.34375 4.46875 -3.46875 C 4.25 -3.59375 3.769531 -3.765625 3.03125 -3.984375 C 2.363281 -4.171875 1.890625 -4.363281 1.609375 -4.5625 C 1.328125 -4.769531 1.109375 -5.023438 0.953125 -5.328125 C 0.796875 -5.640625 0.71875 -5.988281 0.71875 -6.375 C 0.71875 -7.0625 0.941406 -7.625 1.390625 -8.0625 C 1.835938 -8.507812 2.441406 -8.734375 3.203125 -8.734375 C 3.722656 -8.734375 4.179688 -8.628906 4.578125 -8.421875 C 4.972656 -8.210938 5.273438 -7.914062 5.484375 -7.53125 C 5.703125 -7.144531 5.820312 -6.691406 5.84375 -6.171875 L 4.953125 -6.09375 C 4.898438 -6.644531 4.726562 -7.054688 4.4375 -7.328125 C 4.15625 -7.597656 3.753906 -7.734375 3.234375 -7.734375 C 2.703125 -7.734375 2.296875 -7.613281 2.015625 -7.375 C 1.742188 -7.144531 1.609375 -6.84375 1.609375 -6.46875 C 1.609375 -6.113281 1.710938 -5.84375 1.921875 -5.65625 C 2.117188 -5.46875 2.570312 -5.273438 3.28125 -5.078125 C 3.976562 -4.878906 4.46875 -4.710938 4.75 -4.578125 C 5.175781 -4.359375 5.5 -4.066406 5.71875 -3.703125 C 5.9375 -3.347656 6.046875 -2.925781 6.046875 -2.4375 C 6.046875 -1.9375 5.929688 -1.484375 5.703125 -1.078125 C 5.472656 -0.679688 5.160156 -0.375 4.765625 -0.15625 C 4.367188 0.0507812 3.890625 0.15625 3.328125 0.15625 C 2.460938 0.15625 1.769531 -0.101562 1.25 -0.625 C 0.726562 -1.15625 0.460938 -1.867188 0.453125 -2.765625 Z M 0.453125 -2.765625 "
        ></path>
      </g>
    </g>
  </g>
  <g fill="#000000" fill-opacity="1">
    <g transform="translate(87.431245, 54.349972)">
      <g>
        <path
          d="M 0.78125 0 L 0.78125 -8.59375 L 5.875 -8.59375 L 5.875 -7.578125 L 1.71875 -7.578125 L 1.71875 -4.953125 L 5.609375 -4.953125 L 5.609375 -3.9375 L 1.71875 -3.9375 L 1.71875 -1.015625 L 6.03125 -1.015625 L 6.03125 0 Z M 0.78125 0 "
        ></path>
      </g>
    </g>
  </g>
  <g fill="#000000" fill-opacity="1">
    <g transform="translate(94.593744, 54.349972)">
      <g>
        <path
          d="M 0.734375 0 L 0.734375 -8.59375 L 3.171875 -8.59375 C 3.773438 -8.59375 4.234375 -8.539062 4.546875 -8.4375 C 4.953125 -8.300781 5.304688 -8.050781 5.609375 -7.6875 C 5.910156 -7.320312 6.144531 -6.863281 6.3125 -6.3125 C 6.476562 -5.757812 6.5625 -5.101562 6.5625 -4.34375 C 6.5625 -3.375 6.414062 -2.546875 6.125 -1.859375 C 5.84375 -1.179688 5.476562 -0.703125 5.03125 -0.421875 C 4.582031 -0.140625 4 0 3.28125 0 Z M 1.671875 -1.015625 L 3.171875 -1.015625 C 3.773438 -1.015625 4.234375 -1.113281 4.546875 -1.3125 C 4.859375 -1.507812 5.097656 -1.828125 5.265625 -2.265625 C 5.492188 -2.847656 5.609375 -3.546875 5.609375 -4.359375 C 5.609375 -5.222656 5.488281 -5.90625 5.25 -6.40625 C 5.007812 -6.90625 4.707031 -7.238281 4.34375 -7.40625 C 4.09375 -7.519531 3.691406 -7.578125 3.140625 -7.578125 L 1.671875 -7.578125 Z M 1.671875 -1.015625 "
        ></path>
      </g>
    </g>
  </g>
  <g fill="#000000" fill-opacity="1">
    <g transform="translate(33.423046, 70.849971)">
      <g>
        <path
          d="M 0.765625 0 L 0.765625 -8.59375 L 3.421875 -8.59375 C 4.046875 -8.59375 4.503906 -8.535156 4.796875 -8.421875 C 5.203125 -8.273438 5.523438 -8 5.765625 -7.59375 C 6.015625 -7.195312 6.140625 -6.707031 6.140625 -6.125 C 6.140625 -5.34375 5.941406 -4.707031 5.546875 -4.21875 C 5.148438 -3.738281 4.46875 -3.5 3.5 -3.5 L 1.6875 -3.5 L 1.6875 0 Z M 1.6875 -4.5 L 3.515625 -4.5 C 4.085938 -4.5 4.503906 -4.628906 4.765625 -4.890625 C 5.035156 -5.148438 5.171875 -5.546875 5.171875 -6.078125 C 5.171875 -6.410156 5.101562 -6.695312 4.96875 -6.9375 C 4.84375 -7.1875 4.6875 -7.351562 4.5 -7.4375 C 4.3125 -7.53125 3.976562 -7.578125 3.5 -7.578125 L 1.6875 -7.578125 Z M 1.6875 -4.5 "
        ></path>
      </g>
    </g>
  </g>
  <g fill="#000000" fill-opacity="1">
    <g transform="translate(40.585546, 70.849971)">
      <g>
        <path
          d="M 0.75 0 L 0.75 -8.59375 L 3.875 -8.59375 C 4.53125 -8.59375 5.015625 -8.507812 5.328125 -8.34375 C 5.640625 -8.1875 5.894531 -7.921875 6.09375 -7.546875 C 6.289062 -7.171875 6.390625 -6.738281 6.390625 -6.25 C 6.390625 -5.601562 6.21875 -5.078125 5.875 -4.671875 C 5.539062 -4.273438 5.050781 -4.019531 4.40625 -3.90625 C 4.664062 -3.75 4.863281 -3.59375 5 -3.4375 C 5.28125 -3.101562 5.523438 -2.738281 5.734375 -2.34375 L 6.96875 0 L 5.796875 0 L 4.859375 -1.78125 C 4.492188 -2.488281 4.21875 -2.960938 4.03125 -3.203125 C 3.84375 -3.441406 3.660156 -3.601562 3.484375 -3.6875 C 3.316406 -3.769531 3.078125 -3.8125 2.765625 -3.8125 L 1.6875 -3.8125 L 1.6875 0 Z M 1.6875 -4.796875 L 3.6875 -4.796875 C 4.125 -4.796875 4.457031 -4.847656 4.6875 -4.953125 C 4.914062 -5.054688 5.09375 -5.222656 5.21875 -5.453125 C 5.351562 -5.679688 5.421875 -5.945312 5.421875 -6.25 C 5.421875 -6.675781 5.296875 -7.015625 5.046875 -7.265625 C 4.796875 -7.515625 4.421875 -7.640625 3.921875 -7.640625 L 1.6875 -7.640625 Z M 1.6875 -4.796875 "
        ></path>
      </g>
    </g>
  </g>
  <g fill="#000000" fill-opacity="1">
    <g transform="translate(48.287108, 70.849971)">
      <g>
        <path
          d="M 0.5 -4.1875 C 0.5 -5.644531 0.820312 -6.769531 1.46875 -7.5625 C 2.113281 -8.351562 2.914062 -8.75 3.875 -8.75 C 4.5 -8.75 5.066406 -8.570312 5.578125 -8.21875 C 6.085938 -7.863281 6.488281 -7.347656 6.78125 -6.671875 C 7.082031 -6.003906 7.234375 -5.210938 7.234375 -4.296875 C 7.234375 -3.015625 6.945312 -1.972656 6.375 -1.171875 C 5.738281 -0.296875 4.90625 0.140625 3.875 0.140625 C 2.832031 0.140625 1.992188 -0.3125 1.359375 -1.21875 C 0.785156 -2.03125 0.5 -3.019531 0.5 -4.1875 Z M 1.453125 -4.171875 C 1.453125 -3.109375 1.6875 -2.285156 2.15625 -1.703125 C 2.625 -1.117188 3.191406 -0.828125 3.859375 -0.828125 C 4.546875 -0.828125 5.117188 -1.117188 5.578125 -1.703125 C 6.046875 -2.296875 6.28125 -3.164062 6.28125 -4.3125 C 6.28125 -5.050781 6.160156 -5.710938 5.921875 -6.296875 C 5.734375 -6.742188 5.453125 -7.097656 5.078125 -7.359375 C 4.710938 -7.628906 4.3125 -7.765625 3.875 -7.765625 C 3.175781 -7.765625 2.597656 -7.46875 2.140625 -6.875 C 1.679688 -6.289062 1.453125 -5.390625 1.453125 -4.171875 Z M 1.453125 -4.171875 "
        ></path>
      </g>
    </g>
  </g>
  <g fill="#000000" fill-opacity="1">
    <g transform="translate(56.545312, 70.849971)">
      <g>
        <path
          d="M 0.828125 0 L 0.828125 -8.59375 L 5.578125 -8.59375 L 5.578125 -7.578125 L 1.765625 -7.578125 L 1.765625 -4.921875 L 5.0625 -4.921875 L 5.0625 -3.90625 L 1.765625 -3.90625 L 1.765625 0 Z M 0.828125 0 "
        ></path>
      </g>
    </g>
  </g>
  <g fill="#000000" fill-opacity="1">
    <g transform="translate(63.157029, 70.849971)">
      <g>
        <path
          d="M 0.78125 0 L 0.78125 -8.59375 L 5.875 -8.59375 L 5.875 -7.578125 L 1.71875 -7.578125 L 1.71875 -4.953125 L 5.609375 -4.953125 L 5.609375 -3.9375 L 1.71875 -3.9375 L 1.71875 -1.015625 L 6.03125 -1.015625 L 6.03125 0 Z M 0.78125 0 "
        ></path>
      </g>
    </g>
  </g>
  <g fill="#000000" fill-opacity="1">
    <g transform="translate(70.319528, 70.849971)">
      <g>
        <path
          d="M 0.453125 -2.765625 L 1.328125 -2.859375 C 1.367188 -2.378906 1.472656 -2.007812 1.640625 -1.75 C 1.804688 -1.488281 2.039062 -1.273438 2.34375 -1.109375 C 2.65625 -0.953125 3.007812 -0.875 3.40625 -0.875 C 3.957031 -0.875 4.382812 -1.007812 4.6875 -1.28125 C 5 -1.550781 5.15625 -1.90625 5.15625 -2.34375 C 5.15625 -2.59375 5.097656 -2.8125 4.984375 -3 C 4.867188 -3.1875 4.695312 -3.34375 4.46875 -3.46875 C 4.25 -3.59375 3.769531 -3.765625 3.03125 -3.984375 C 2.363281 -4.171875 1.890625 -4.363281 1.609375 -4.5625 C 1.328125 -4.769531 1.109375 -5.023438 0.953125 -5.328125 C 0.796875 -5.640625 0.71875 -5.988281 0.71875 -6.375 C 0.71875 -7.0625 0.941406 -7.625 1.390625 -8.0625 C 1.835938 -8.507812 2.441406 -8.734375 3.203125 -8.734375 C 3.722656 -8.734375 4.179688 -8.628906 4.578125 -8.421875 C 4.972656 -8.210938 5.273438 -7.914062 5.484375 -7.53125 C 5.703125 -7.144531 5.820312 -6.691406 5.84375 -6.171875 L 4.953125 -6.09375 C 4.898438 -6.644531 4.726562 -7.054688 4.4375 -7.328125 C 4.15625 -7.597656 3.753906 -7.734375 3.234375 -7.734375 C 2.703125 -7.734375 2.296875 -7.613281 2.015625 -7.375 C 1.742188 -7.144531 1.609375 -6.84375 1.609375 -6.46875 C 1.609375 -6.113281 1.710938 -5.84375 1.921875 -5.65625 C 2.117188 -5.46875 2.570312 -5.273438 3.28125 -5.078125 C 3.976562 -4.878906 4.46875 -4.710938 4.75 -4.578125 C 5.175781 -4.359375 5.5 -4.066406 5.71875 -3.703125 C 5.9375 -3.347656 6.046875 -2.925781 6.046875 -2.4375 C 6.046875 -1.9375 5.929688 -1.484375 5.703125 -1.078125 C 5.472656 -0.679688 5.160156 -0.375 4.765625 -0.15625 C 4.367188 0.0507812 3.890625 0.15625 3.328125 0.15625 C 2.460938 0.15625 1.769531 -0.101562 1.25 -0.625 C 0.726562 -1.15625 0.460938 -1.867188 0.453125 -2.765625 Z M 0.453125 -2.765625 "
        ></path>
      </g>
    </g>
  </g>
  <g fill="#000000" fill-opacity="1">
    <g transform="translate(77.482027, 70.849971)">
      <g>
        <path
          d="M 0.453125 -2.765625 L 1.328125 -2.859375 C 1.367188 -2.378906 1.472656 -2.007812 1.640625 -1.75 C 1.804688 -1.488281 2.039062 -1.273438 2.34375 -1.109375 C 2.65625 -0.953125 3.007812 -0.875 3.40625 -0.875 C 3.957031 -0.875 4.382812 -1.007812 4.6875 -1.28125 C 5 -1.550781 5.15625 -1.90625 5.15625 -2.34375 C 5.15625 -2.59375 5.097656 -2.8125 4.984375 -3 C 4.867188 -3.1875 4.695312 -3.34375 4.46875 -3.46875 C 4.25 -3.59375 3.769531 -3.765625 3.03125 -3.984375 C 2.363281 -4.171875 1.890625 -4.363281 1.609375 -4.5625 C 1.328125 -4.769531 1.109375 -5.023438 0.953125 -5.328125 C 0.796875 -5.640625 0.71875 -5.988281 0.71875 -6.375 C 0.71875 -7.0625 0.941406 -7.625 1.390625 -8.0625 C 1.835938 -8.507812 2.441406 -8.734375 3.203125 -8.734375 C 3.722656 -8.734375 4.179688 -8.628906 4.578125 -8.421875 C 4.972656 -8.210938 5.273438 -7.914062 5.484375 -7.53125 C 5.703125 -7.144531 5.820312 -6.691406 5.84375 -6.171875 L 4.953125 -6.09375 C 4.898438 -6.644531 4.726562 -7.054688 4.4375 -7.328125 C 4.15625 -7.597656 3.753906 -7.734375 3.234375 -7.734375 C 2.703125 -7.734375 2.296875 -7.613281 2.015625 -7.375 C 1.742188 -7.144531 1.609375 -6.84375 1.609375 -6.46875 C 1.609375 -6.113281 1.710938 -5.84375 1.921875 -5.65625 C 2.117188 -5.46875 2.570312 -5.273438 3.28125 -5.078125 C 3.976562 -4.878906 4.46875 -4.710938 4.75 -4.578125 C 5.175781 -4.359375 5.5 -4.066406 5.71875 -3.703125 C 5.9375 -3.347656 6.046875 -2.925781 6.046875 -2.4375 C 6.046875 -1.9375 5.929688 -1.484375 5.703125 -1.078125 C 5.472656 -0.679688 5.160156 -0.375 4.765625 -0.15625 C 4.367188 0.0507812 3.890625 0.15625 3.328125 0.15625 C 2.460938 0.15625 1.769531 -0.101562 1.25 -0.625 C 0.726562 -1.15625 0.460938 -1.867188 0.453125 -2.765625 Z M 0.453125 -2.765625 "
        ></path>
      </g>
    </g>
  </g>
  <g fill="#000000" fill-opacity="1">
    <g transform="translate(84.644526, 70.849971)">
      <g>
        <path
          d="M 0.9375 0 L 0.9375 -8.59375 L 1.875 -8.59375 L 1.875 0 Z M 0.9375 0 "
        ></path>
      </g>
    </g>
  </g>
  <g fill="#000000" fill-opacity="1">
    <g transform="translate(87.980856, 70.849971)">
      <g>
        <path
          d="M 0.5 -4.1875 C 0.5 -5.644531 0.820312 -6.769531 1.46875 -7.5625 C 2.113281 -8.351562 2.914062 -8.75 3.875 -8.75 C 4.5 -8.75 5.066406 -8.570312 5.578125 -8.21875 C 6.085938 -7.863281 6.488281 -7.347656 6.78125 -6.671875 C 7.082031 -6.003906 7.234375 -5.210938 7.234375 -4.296875 C 7.234375 -3.015625 6.945312 -1.972656 6.375 -1.171875 C 5.738281 -0.296875 4.90625 0.140625 3.875 0.140625 C 2.832031 0.140625 1.992188 -0.3125 1.359375 -1.21875 C 0.785156 -2.03125 0.5 -3.019531 0.5 -4.1875 Z M 1.453125 -4.171875 C 1.453125 -3.109375 1.6875 -2.285156 2.15625 -1.703125 C 2.625 -1.117188 3.191406 -0.828125 3.859375 -0.828125 C 4.546875 -0.828125 5.117188 -1.117188 5.578125 -1.703125 C 6.046875 -2.296875 6.28125 -3.164062 6.28125 -4.3125 C 6.28125 -5.050781 6.160156 -5.710938 5.921875 -6.296875 C 5.734375 -6.742188 5.453125 -7.097656 5.078125 -7.359375 C 4.710938 -7.628906 4.3125 -7.765625 3.875 -7.765625 C 3.175781 -7.765625 2.597656 -7.46875 2.140625 -6.875 C 1.679688 -6.289062 1.453125 -5.390625 1.453125 -4.171875 Z M 1.453125 -4.171875 "
        ></path>
      </g>
    </g>
  </g>
  <g fill="#000000" fill-opacity="1">
    <g transform="translate(96.239061, 70.849971)">
      <g>
        <path
          d="M 0.734375 0 L 0.734375 -8.59375 L 1.6875 -8.59375 L 5.390625 -1.84375 L 5.390625 -8.59375 L 6.28125 -8.59375 L 6.28125 0 L 5.328125 0 L 1.625 -6.75 L 1.625 0 Z M 0.734375 0 "
        ></path>
      </g>
    </g>
  </g>
  <g fill="#000000" fill-opacity="1">
    <g transform="translate(103.940626, 70.849971)">
      <g>
        <path
          d="M -0.015625 0 L 2.703125 -8.59375 L 3.703125 -8.59375 L 6.578125 0 L 5.515625 0 L 4.6875 -2.609375 L 1.75 -2.609375 L 0.984375 0 Z M 2.015625 -3.53125 L 4.40625 -3.53125 L 3.671875 -5.90625 C 3.441406 -6.632812 3.273438 -7.226562 3.171875 -7.6875 C 3.085938 -7.132812 2.960938 -6.585938 2.796875 -6.046875 Z M 2.015625 -3.53125 "
        ></path>
      </g>
    </g>
  </g>
  <g fill="#000000" fill-opacity="1">
    <g transform="translate(111.103128, 70.849971)">
      <g>
        <path
          d="M 0.703125 0 L 0.703125 -8.59375 L 1.640625 -8.59375 L 1.640625 -1.015625 L 5.109375 -1.015625 L 5.109375 0 Z M 0.703125 0 "
        ></path>
      </g>
    </g>
  </g>

  <g clip-path="url(#a62e258abe)">
    <g clip-path="url(#4297c601e4)">
      <path
        fill="#000000"
        d="M 6.972656 70.257812 L 16.921875 70.257812 L 16.921875 79.742188 L 6.972656 79.742188 Z M 6.972656 70.257812 "
        fill-opacity="1"
        fill-rule="nonzero"
      ></path>
    </g>
  </g>
  <g clip-path="url(#8db1ba722d)">
    <g clip-path="url(#b055fafc4e)">
      <path
        fill="#000000"
        d="M 133.078125 70.257812 L 143.027344 70.257812 L 143.027344 79.742188 L 133.078125 79.742188 Z M 133.078125 70.257812 "
        fill-opacity="1"
        fill-rule="nonzero"
      ></path>
    </g>
  </g>
</svg>